<?xml version="1.0" standalone="no"?>
<!DOCTYPE svg PUBLIC "-//W3C//DTD SVG 1.1//EN" "http://www.w3.org/Graphics/SVG/1.1/DTD/svg11.dtd">
<svg width="54mm" height="52mm" viewBox="-27 -25 54 52" xmlns="http://www.w3.org/2000/svg" version="1.1">
<title>OpenSCAD Model</title>
<path d="
M 0.0235596,26.9999 L 0.0471191,27 L 0.0471191,26.9997 L 0.235611,26.9988 L 0.235611,26.999 L 0.259033,26.9986
 L 0.28273,26.9985 L 0.28273,26.9983 L 0.471207,26.9957 L 0.471207,26.9959 L 0.494827,26.9953 L 0.518326,26.995
 L 0.518326,26.9948 L 0.706772,26.9905 L 0.706772,26.9907 L 0.73027,26.99 L 0.753876,26.9895 L 0.753876,26.9893
 L 0.942276,26.9833 L 0.942276,26.9836 L 0.965759,26.9826 L 0.98938,26.9819 L 0.989365,26.9817 L 1.1777,26.9741
 L 1.17772,26.9743 L 1.20122,26.9731 L 1.22479,26.9722 L 1.22478,26.972 L 1.41306,26.9628 L 1.41307,26.963
 L 1.43657,26.9616 L 1.46011,26.9605 L 1.46011,26.9603 L 1.64828,26.9494 L 1.6483,26.9496 L 1.67184,26.9481
 L 1.69534,26.9467 L 1.69533,26.9465 L 1.88341,26.934 L 1.88342,26.9342 L 1.90694,26.9324 L 1.93042,26.9309
 L 1.9304,26.9307 L 2.11838,26.9165 L 2.11839,26.9168 L 2.14177,26.9148 L 2.16536,26.913 L 2.16534,26.9128
 L 2.35318,26.897 L 2.3532,26.8972 L 2.3766,26.8951 L 2.40013,26.8931 L 2.40012,26.8929 L 2.58781,26.8755
 L 2.58783,26.8757 L 2.61128,26.8733 L 2.63474,26.8711 L 2.6347,26.8709 L 2.82224,26.8519 L 2.82227,26.8521
 L 2.8457,26.8495 L 2.86913,26.8471 L 2.86909,26.8469 L 3.05646,26.8262 L 3.05647,26.8264 L 3.07982,26.8237
 L 3.1033,26.8211 L 3.10327,26.8208 L 3.29044,26.7985 L 3.29047,26.7987 L 3.31377,26.7957 L 3.33723,26.793
 L 3.3372,26.7928 L 3.52417,26.7688 L 3.5242,26.769 L 3.54752,26.7658 L 3.57091,26.7628 L 3.57089,26.7626
 L 3.75764,26.737 L 3.75766,26.7372 L 3.78093,26.7338 L 3.80432,26.7306 L 3.80429,26.7304 L 3.99081,26.7032
 L 3.99084,26.7034 L 4.0141,26.6998 L 4.03745,26.6964 L 4.03741,26.6962 L 4.22369,26.6674 L 4.22372,26.6676
 L 4.24693,26.6638 L 4.27026,26.6602 L 4.27023,26.66 L 4.45624,26.6295 L 4.45628,26.6297 L 4.47949,26.6257
 L 4.50275,26.6219 L 4.50272,26.6217 L 4.68846,26.5896 L 4.68849,26.5898 L 4.71158,26.5856 L 4.73489,26.5816
 L 4.73486,26.5814 L 4.96667,26.5392 L 4.55232,24.3251 L 4.63768,24.3116 L 6.15506,23.9724 L 7.64816,23.5386
 L 9.11107,23.012 L 10.538,22.3945 L 11.9234,21.6886 L 13.2617,20.8971 L 14.5477,20.0232 L 15.7762,19.0702
 L 16.9425,18.042 L 18.042,16.9425 L 19.0702,15.7762 L 20.0232,14.5477 L 20.8971,13.2617 L 21.6886,11.9234
 L 22.3945,10.538 L 23.012,9.11107 L 23.5386,7.64816 L 23.9724,6.15506 L 24.3116,4.63768 L 24.5548,3.10199
 L 24.6442,2.15608 L 26.8972,2.3532 L 26.9165,2.11838 L 26.9168,2.11839 L 26.9185,2.09499 L 26.9204,2.07141
 L 26.9202,2.0714 L 26.934,1.88341 L 26.9342,1.88342 L 26.9357,1.85991 L 26.9375,1.83641 L 26.9373,1.8364
 L 26.9494,1.64828 L 26.9496,1.6483 L 26.9509,1.62482 L 26.9525,1.60126 L 26.9523,1.60126 L 26.9628,1.41306
 L 26.963,1.41307 L 26.9641,1.38953 L 26.9654,1.366 L 26.9652,1.366 L 26.9741,1.1777 L 26.9743,1.17772
 L 26.9752,1.15424 L 26.9763,1.13063 L 26.9761,1.13063 L 26.9833,0.942276 L 26.9836,0.942276 L 26.9842,0.918777
 L 26.9852,0.895187 L 26.9849,0.895172 L 26.9905,0.706772 L 26.9907,0.706772 L 26.9912,0.683273 L 26.9919,0.659668
 L 26.9917,0.659653 L 26.9957,0.471207 L 26.9959,0.471207 L 26.9962,0.447617 L 26.9967,0.424088 L 26.9965,0.424088
 L 26.9988,0.235611 L 26.999,0.235611 L 26.9991,0.212143 L 26.9993,0.188492 L 26.9991,0.188492 L 26.9998,-0
 L 27,-0 L 26.9999,-0.0235596 L 27,-0.0471191 L 26.9997,-0.0471191 L 26.9988,-0.235611 L 26.999,-0.235611
 L 26.9986,-0.259033 L 26.9985,-0.28273 L 26.9983,-0.28273 L 26.9957,-0.471207 L 26.9959,-0.471207 L 26.9953,-0.494827
 L 26.995,-0.518326 L 26.9948,-0.518326 L 26.9905,-0.706772 L 26.9907,-0.706772 L 26.99,-0.73027 L 26.9895,-0.753876
 L 26.9893,-0.753876 L 26.9833,-0.942276 L 26.9836,-0.942276 L 26.9826,-0.965759 L 26.9819,-0.98938 L 26.9817,-0.989365
 L 26.9741,-1.1777 L 26.9743,-1.17772 L 26.9731,-1.20122 L 26.9722,-1.22479 L 26.972,-1.22478 L 26.9628,-1.41306
 L 26.963,-1.41307 L 26.9616,-1.43657 L 26.9605,-1.46011 L 26.9603,-1.46011 L 26.9494,-1.64828 L 26.9496,-1.6483
 L 26.9481,-1.67184 L 26.9467,-1.69534 L 26.9465,-1.69533 L 26.934,-1.88341 L 26.9342,-1.88342 L 26.9324,-1.90694
 L 26.9309,-1.93042 L 26.9307,-1.9304 L 26.9165,-2.11838 L 26.9168,-2.11839 L 26.9148,-2.14177 L 26.913,-2.16536
 L 26.9128,-2.16534 L 26.897,-2.35318 L 26.8972,-2.3532 L 26.8951,-2.3766 L 26.8931,-2.40013 L 26.8929,-2.40012
 L 26.8755,-2.58781 L 26.8757,-2.58783 L 26.8733,-2.61128 L 26.8711,-2.63474 L 26.8709,-2.6347 L 26.8519,-2.82224
 L 26.8521,-2.82227 L 26.8495,-2.8457 L 26.8471,-2.86913 L 26.8469,-2.86909 L 26.8262,-3.05646 L 26.8264,-3.05647
 L 26.8237,-3.07982 L 26.8211,-3.1033 L 26.8208,-3.10327 L 26.7985,-3.29044 L 26.7987,-3.29047 L 26.7957,-3.31377
 L 26.793,-3.33723 L 26.7928,-3.3372 L 26.7688,-3.52417 L 26.769,-3.5242 L 26.7658,-3.54752 L 26.7628,-3.57091
 L 26.7626,-3.57089 L 26.737,-3.75764 L 26.7372,-3.75766 L 26.7338,-3.78093 L 26.7306,-3.80432 L 26.7304,-3.80429
 L 26.7032,-3.99081 L 26.7034,-3.99084 L 26.6998,-4.0141 L 26.6964,-4.03745 L 26.6962,-4.03741 L 26.6674,-4.22369
 L 26.6676,-4.22372 L 26.6638,-4.24693 L 26.6602,-4.27026 L 26.66,-4.27023 L 26.6295,-4.45624 L 26.6297,-4.45628
 L 26.6257,-4.47949 L 26.6219,-4.50275 L 26.6217,-4.50272 L 26.5896,-4.68846 L 26.5898,-4.68849 L 26.5856,-4.71158
 L 26.5816,-4.73489 L 26.5814,-4.73486 L 26.5477,-4.92032 L 26.5479,-4.92035 L 26.5435,-4.94348 L 26.5392,-4.96667
 L 26.539,-4.96664 L 26.5037,-5.15179 L 26.5039,-5.15184 L 26.4993,-5.17496 L 26.4949,-5.19809 L 26.4947,-5.19804
 L 26.4578,-5.38289 L 26.458,-5.38292 L 26.4531,-5.40602 L 26.4485,-5.42909 L 26.4483,-5.42906 L 26.4098,-5.61357
 L 26.41,-5.6136 L 26.405,-5.63657 L 26.4001,-5.6597 L 26.3999,-5.65965 L 26.3598,-5.84381 L 26.36,-5.84386
 L 26.3548,-5.86685 L 26.3497,-5.88986 L 26.3495,-5.88982 L 26.3078,-6.07362 L 26.308,-6.07367 L 26.3026,-6.09654
 L 26.2973,-6.11958 L 26.2971,-6.11954 L 26.2538,-6.30296 L 26.254,-6.30302 L 26.2484,-6.32588 L 26.2429,-6.34883
 L 26.2427,-6.34879 L 26.1978,-6.53183 L 26.198,-6.53189 L 26.1922,-6.55463 L 26.1865,-6.57759 L 26.1863,-6.57755
 L 26.1398,-6.76021 L 26.14,-6.76025 L 26.134,-6.78307 L 26.1281,-6.80586 L 26.1279,-6.80582 L 26.0798,-6.98805
 L 26.08,-6.98811 L 26.0738,-7.01085 L 26.0677,-7.03362 L 26.0676,-7.03355 L 26.0178,-7.21538 L 26.018,-7.21542
 L 26.0116,-7.23805 L 26.0054,-7.26083 L 26.0052,-7.26077 L 25.9539,-7.44214 L 25.9541,-7.4422 L 25.9475,-7.46477
 L 25.941,-7.48749 L 25.9408,-7.48743 L 25.8879,-7.66835 L 25.8881,-7.66841 L 25.8813,-7.69092 L 25.8747,-7.71358
 L 25.8745,-7.71352 L 25.82,-7.89397 L 25.8202,-7.89403 L 25.8132,-7.91649 L 25.8064,-7.93909 L 25.8062,-7.93903
 L 25.7502,-8.11899 L 25.7504,-8.11905 L 25.7431,-8.14149 L 25.7361,-8.16399 L 25.7359,-8.16391 L 25.6783,-8.34338
 L 25.6785,-8.34344 L 25.6711,-8.36584 L 25.6639,-8.38826 L 25.6637,-8.3882 L 25.6045,-8.56715 L 25.6047,-8.56721
 L 25.5971,-8.58952 L 25.5897,-8.61189 L 25.5895,-8.61183 L 25.5288,-8.79027 L 25.529,-8.79033 L 25.5212,-8.81256
 L 25.5136,-8.83487 L 25.5134,-8.83481 L 25.4511,-9.01271 L 25.4513,-9.01277 L 25.4433,-9.03496 L 25.4355,-9.05719
 L 25.4353,-9.05711 L 25.3715,-9.23447 L 25.3717,-9.23454 L 25.3635,-9.25658 L 25.3555,-9.27881 L 25.3553,-9.27873
 L 25.2899,-9.45552 L 25.2901,-9.4556 L 25.2818,-9.47758 L 25.2736,-9.49971 L 25.2734,-9.49965 L 25.2065,-9.67586
 L 25.2067,-9.67593 L 25.1981,-9.69785 L 25.1897,-9.71991 L 25.1895,-9.71983 L 25.1211,-9.89545 L 25.1213,-9.89552
 L 25.1125,-9.9174 L 25.104,-9.93936 L 25.1038,-9.93929 L 25.0338,-10.1143 L 25.034,-10.1144 L 25.025,-10.1362
 L 25.0163,-10.1581 L 25.0161,-10.158 L 24.9445,-10.3324 L 24.9447,-10.3324 L 24.9356,-10.3541 L 24.9267,-10.376
 L 24.9265,-10.3759 L 24.8534,-10.5497 L 24.8536,-10.5497 L 24.8443,-10.5714 L 24.8352,-10.5931 L 24.835,-10.593
 L 24.7604,-10.7661 L 24.7606,-10.7662 L 24.7511,-10.7877 L 24.7418,-10.8094 L 24.7416,-10.8093 L 24.6655,-10.9818
 L 24.6657,-10.9819 L 24.6561,-11.0033 L 24.6465,-11.0249 L 24.6463,-11.0248 L 24.5688,-11.1966 L 24.569,-11.1967
 L 24.5591,-11.2181 L 24.5494,-11.2396 L 24.5492,-11.2395 L 24.4701,-11.4106 L 24.4703,-11.4107 L 24.4603,-11.432
 L 24.4503,-11.4534 L 24.4502,-11.4533 L 24.3696,-11.6237 L 24.3698,-11.6238 L 24.3595,-11.645 L 24.3495,-11.6663
 L 24.3493,-11.6662 L 24.2672,-11.8359 L 24.2674,-11.836 L 24.257,-11.8571 L 24.2467,-11.8784 L 24.2466,-11.8783
 L 24.163,-12.0472 L 24.1632,-12.0473 L 24.1526,-12.0683 L 24.1422,-12.0895 L 24.142,-12.0894 L 24.057,-12.2576
 L 24.0572,-12.2577 L 24.0464,-12.2786 L 24.0357,-12.2997 L 24.0356,-12.2996 L 23.9491,-12.4671 L 23.9493,-12.4672
 L 23.9383,-12.488 L 23.9275,-12.509 L 23.9273,-12.5089 L 23.8394,-12.6756 L 23.8396,-12.6757 L 23.8284,-12.6965
 L 23.8174,-12.7173 L 23.8172,-12.7172 L 23.7279,-12.8832 L 23.7281,-12.8833 L 23.7167,-12.904 L 23.7055,-12.9247
 L 23.7054,-12.9246 L 23.6145,-13.0898 L 23.6147,-13.0899 L 23.6032,-13.1103 L 23.5918,-13.131 L 23.5917,-13.131
 L 23.4994,-13.2953 L 23.4996,-13.2954 L 23.4879,-13.3158 L 23.4764,-13.3364 L 23.4762,-13.3363 L 23.3825,-13.4999
 L 23.3827,-13.5 L 23.3708,-13.5204 L 23.3591,-13.5408 L 23.3589,-13.5407 L 23.24,-13.7441 L 21.2928,-12.5926
 L 20.8971,-13.2617 L 20.0232,-14.5477 L 19.0702,-15.7762 L 18.042,-16.9425 L 16.9425,-18.042 L 15.7762,-19.0702
 L 14.5477,-20.0232 L 13.2617,-20.8971 L 11.9234,-21.6886 L 10.538,-22.3945 L 9.11107,-23.012 L 7.64816,-23.5386
 L 6.15506,-23.9724 L 4.63768,-24.3116 L 3.10199,-24.5548 L 1.55406,-24.7012 L 0,-24.75 L -1.55406,-24.7012
 L -3.10199,-24.5548 L -4.63768,-24.3116 L -6.15506,-23.9724 L -7.64816,-23.5386 L -9.11107,-23.012 L -10.538,-22.3945
 L -11.9234,-21.6886 L -13.2617,-20.8971 L -14.5477,-20.0232 L -15.7762,-19.0702 L -16.9425,-18.042 L -18.042,-16.9425
 L -19.0702,-15.7762 L -20.0232,-14.5477 L -20.266,-14.1904 L -22.1171,-15.4866 L -22.2512,-15.2928 L -22.2514,-15.293
 L -22.2647,-15.2735 L -22.2781,-15.2541 L -22.2779,-15.254 L -22.3838,-15.0981 L -22.384,-15.0982 L -22.397,-15.0786
 L -22.4103,-15.0591 L -22.4102,-15.059 L -22.5147,-14.9022 L -22.5149,-14.9023 L -22.5278,-14.8826 L -22.5409,-14.863
 L -22.5407,-14.8629 L -22.6439,-14.7051 L -22.6441,-14.7052 L -22.6568,-14.6854 L -22.6697,-14.6657 L -22.6696,-14.6656
 L -22.7714,-14.507 L -22.7716,-14.5071 L -22.7841,-14.4872 L -22.7968,-14.4673 L -22.7967,-14.4672 L -22.8971,-14.3077
 L -22.8973,-14.3078 L -22.9096,-14.2878 L -22.9222,-14.2678 L -22.9221,-14.2677 L -23.0211,-14.1073 L -23.0213,-14.1075
 L -23.0335,-14.0873 L -23.0459,-14.0672 L -23.0457,-14.0671 L -23.1433,-13.9059 L -23.1435,-13.906 L -23.1555,-13.8858
 L -23.1677,-13.8656 L -23.1676,-13.8655 L -23.2638,-13.7034 L -23.264,-13.7035 L -23.2758,-13.6832 L -23.2879,-13.6629
 L -23.2877,-13.6628 L -23.3825,-13.4999 L -23.3827,-13.5 L -23.3944,-13.4795 L -23.4062,-13.4592 L -23.406,-13.4591
 L -23.4994,-13.2953 L -23.4996,-13.2954 L -23.5111,-13.2749 L -23.5228,-13.2544 L -23.5226,-13.2543 L -23.6145,-13.0898
 L -23.6147,-13.0899 L -23.626,-13.0692 L -23.6375,-13.0486 L -23.6374,-13.0485 L -23.7279,-12.8832 L -23.7281,-12.8833
 L -23.7392,-12.8625 L -23.7505,-12.8418 L -23.7503,-12.8418 L -23.8394,-12.6756 L -23.8396,-12.6757 L -23.8505,-12.6549
 L -23.8617,-12.6341 L -23.8615,-12.634 L -23.9491,-12.4671 L -23.9493,-12.4672 L -23.9601,-12.4463 L -23.971,-12.4254
 L -23.9708,-12.4253 L -24.057,-12.2576 L -24.0572,-12.2577 L -24.0677,-12.2367 L -24.0785,-12.2157 L -24.0783,-12.2156
 L -24.163,-12.0472 L -24.1632,-12.0473 L -24.1736,-12.0263 L -24.1842,-12.0051 L -24.184,-12.0051 L -24.2672,-11.8359
 L -24.2674,-11.836 L -24.2776,-11.8148 L -24.2881,-11.7936 L -24.2879,-11.7935 L -24.3696,-11.6237 L -24.3698,-11.6238
 L -24.3798,-11.6025 L -24.39,-11.5812 L -24.3899,-11.5811 L -24.4701,-11.4106 L -24.4703,-11.4107 L -24.4801,-11.3893
 L -24.4902,-11.368 L -24.49,-11.3679 L -24.5688,-11.1966 L -24.569,-11.1967 L -24.5786,-11.1753 L -24.5885,-11.1538
 L -24.5883,-11.1537 L -24.6655,-10.9818 L -24.6657,-10.9819 L -24.6752,-10.9603 L -24.6848,-10.9388 L -24.6847,-10.9387
 L -24.7604,-10.7661 L -24.7606,-10.7662 L -24.7698,-10.7447 L -24.7794,-10.723 L -24.7792,-10.7229 L -24.8534,-10.5497
 L -24.8536,-10.5497 L -24.8627,-10.528 L -24.872,-10.5063 L -24.8718,-10.5063 L -24.9445,-10.3324 L -24.9447,-10.3324
 L -24.9536,-10.3107 L -24.9627,-10.2889 L -24.9625,-10.2888 L -25.0338,-10.1143 L -25.034,-10.1144 L -25.0426,-10.0925
 L -25.0516,-10.0707 L -25.0514,-10.0706 L -25.1211,-9.89545 L -25.1213,-9.89552 L -25.1298,-9.8736 L -25.1385,-9.85167
 L -25.1383,-9.85159 L -25.2065,-9.67586 L -25.2067,-9.67593 L -25.215,-9.65392 L -25.2235,-9.63191 L -25.2233,-9.63185
 L -25.2899,-9.45552 L -25.2901,-9.4556 L -25.2983,-9.43352 L -25.3066,-9.41144 L -25.3064,-9.41136 L -25.3715,-9.23447
 L -25.3717,-9.23454 L -25.3796,-9.21237 L -25.3878,-9.19025 L -25.3876,-9.19017 L -25.4511,-9.01271 L -25.4513,-9.01277
 L -25.4591,-8.99055 L -25.467,-8.96834 L -25.4668,-8.96828 L -25.5288,-8.79027 L -25.529,-8.79033 L -25.5365,-8.76805
 L -25.5443,-8.74576 L -25.5441,-8.7457 L -25.6045,-8.56715 L -25.6047,-8.56721 L -25.6121,-8.54483 L -25.6196,-8.52252
 L -25.6194,-8.52245 L -25.6783,-8.34338 L -25.6785,-8.34344 L -25.6857,-8.32095 L -25.693,-8.29861 L -25.6928,-8.29855
 L -25.7502,-8.11899 L -25.7504,-8.11905 L -25.7573,-8.0966 L -25.7645,-8.0741 L -25.7643,-8.07404 L -25.82,-7.89397
 L -25.8202,-7.89403 L -25.827,-7.87151 L -25.834,-7.84895 L -25.8338,-7.84889 L -25.8879,-7.66835 L -25.8881,-7.66841
 L -25.8947,-7.64578 L -25.9015,-7.62321 L -25.9013,-7.62315 L -25.9539,-7.44214 L -25.9541,-7.4422 L -25.9604,-7.41954
 L -25.967,-7.3969 L -25.9668,-7.39684 L -26.0178,-7.21538 L -26.018,-7.21542 L -26.0242,-7.19272 L -26.0306,-7.17001
 L -26.0304,-7.16995 L -26.0798,-6.98805 L -26.08,-6.98811 L -26.086,-6.96529 L -26.0921,-6.94258 L -26.0919,-6.94252
 L -26.1398,-6.76021 L -26.14,-6.76025 L -26.1458,-6.73738 L -26.1517,-6.71461 L -26.1515,-6.71457 L -26.1978,-6.53183
 L -26.198,-6.53189 L -26.2035,-6.50905 L -26.2093,-6.48615 L -26.2091,-6.4861 L -26.2538,-6.30296 L -26.254,-6.30302
 L -26.2594,-6.28014 L -26.2649,-6.25719 L -26.2647,-6.25714 L -26.3078,-6.07362 L -26.308,-6.07367 L -26.3132,-6.05074
 L -26.3185,-6.02774 L -26.3183,-6.02769 L -26.3598,-5.84381 L -26.36,-5.84386 L -26.365,-5.82085 L -26.3701,-5.79785
 L -26.3699,-5.79781 L -26.4098,-5.61357 L -26.41,-5.6136 L -26.4147,-5.59061 L -26.4197,-5.5675 L -26.4195,-5.56746
 L -26.4578,-5.38289 L -26.458,-5.38292 L -26.4625,-5.3598 L -26.4673,-5.33675 L -26.4671,-5.3367 L -26.5037,-5.15179
 L -26.5039,-5.15184 L -26.5083,-5.12868 L -26.5129,-5.10558 L -26.5127,-5.10553 L -26.5477,-4.92032 L -26.5479,-4.92035
 L -26.552,-4.89723 L -26.5564,-4.87401 L -26.5562,-4.87398 L -26.5896,-4.68846 L -26.5898,-4.68849 L -26.5938,-4.66536
 L -26.5979,-4.64207 L -26.5977,-4.64204 L -26.6295,-4.45624 L -26.6297,-4.45628 L -26.6335,-4.43301 L -26.6374,-4.40979
 L -26.6372,-4.40976 L -26.6674,-4.22369 L -26.6676,-4.22372 L -26.6711,-4.2005 L -26.6749,-4.17717 L -26.6747,-4.17714
 L -26.7032,-3.99081 L -26.7034,-3.99084 L -26.7068,-3.96753 L -26.7103,-3.94423 L -26.7101,-3.9442 L -26.737,-3.75764
 L -26.7372,-3.75766 L -26.7404,-3.73439 L -26.7437,-3.711 L -26.7435,-3.71097 L -26.7688,-3.52417 L -26.769,-3.5242
 L -26.7719,-3.50092 L -26.7751,-3.47748 L -26.7749,-3.47745 L -26.7985,-3.29044 L -26.7987,-3.29047 L -26.8015,-3.26714
 L -26.8044,-3.24368 L -26.8042,-3.24367 L -26.8262,-3.05646 L -26.8264,-3.05647 L -26.829,-3.03307 L -26.8317,-3.00966
 L -26.8315,-3.00963 L -26.8519,-2.82224 L -26.8521,-2.82227 L -26.8544,-2.7988 L -26.857,-2.77539 L -26.8568,-2.77538
 L -26.8755,-2.58781 L -26.8757,-2.58783 L -26.8778,-2.56435 L -26.8802,-2.54092 L -26.88,-2.54089 L -26.897,-2.35318
 L -26.8972,-2.3532 L -26.8992,-2.32983 L -26.9013,-2.30624 L -26.9011,-2.30623 L -26.9165,-2.11838 L -26.9168,-2.11839
 L -26.9185,-2.09499 L -26.9204,-2.07141 L -26.9202,-2.0714 L -26.934,-1.88341 L -26.9342,-1.88342 L -26.9357,-1.85991
 L -26.9375,-1.83641 L -26.9373,-1.8364 L -26.9494,-1.64828 L -26.9496,-1.6483 L -26.9509,-1.62482 L -26.9525,-1.60126
 L -26.9523,-1.60126 L -26.9628,-1.41306 L -26.963,-1.41307 L -26.9641,-1.38953 L -26.9654,-1.366 L -26.9652,-1.366
 L -26.9741,-1.1777 L -26.9743,-1.17772 L -26.9752,-1.15424 L -26.9763,-1.13063 L -26.9761,-1.13063 L -26.9833,-0.942276
 L -26.9836,-0.942276 L -26.9842,-0.918777 L -26.9852,-0.895187 L -26.9849,-0.895172 L -26.9905,-0.706772 L -26.9907,-0.706772
 L -26.9912,-0.683273 L -26.9919,-0.659668 L -26.9917,-0.659653 L -26.9957,-0.471207 L -26.9959,-0.471207 L -26.9962,-0.447617
 L -26.9967,-0.424088 L -26.9965,-0.424088 L -26.9988,-0.235611 L -26.999,-0.235611 L -26.9991,-0.212143 L -26.9993,-0.188492
 L -26.9991,-0.188492 L -26.9998,-0 L -27,-0 L -26.9999,0.0235596 L -27,0.0471191 L -26.9997,0.0471191
 L -26.9988,0.235611 L -26.999,0.235611 L -26.9986,0.259033 L -26.9985,0.28273 L -26.9983,0.28273 L -26.9957,0.471207
 L -26.9959,0.471207 L -26.9953,0.494827 L -26.995,0.518326 L -26.9948,0.518326 L -26.9905,0.706772 L -26.9907,0.706772
 L -26.99,0.73027 L -26.9895,0.753876 L -26.9893,0.753876 L -26.9833,0.942276 L -26.9836,0.942276 L -26.9826,0.965759
 L -26.9819,0.98938 L -26.9817,0.989365 L -26.9741,1.1777 L -26.9743,1.17772 L -26.9731,1.20122 L -26.9722,1.22479
 L -26.972,1.22478 L -26.9628,1.41306 L -26.963,1.41307 L -26.9616,1.43657 L -26.9605,1.46011 L -26.9603,1.46011
 L -26.9494,1.64828 L -26.9496,1.6483 L -26.9481,1.67184 L -26.9467,1.69534 L -26.9465,1.69533 L -26.934,1.88341
 L -26.9342,1.88342 L -26.9324,1.90694 L -26.9309,1.93042 L -26.9307,1.9304 L -26.9165,2.11838 L -26.9168,2.11839
 L -26.9148,2.14177 L -26.913,2.16536 L -26.9128,2.16534 L -26.897,2.35318 L -26.8972,2.3532 L -26.8951,2.3766
 L -26.8931,2.40013 L -26.8929,2.40012 L -26.8711,2.63474 L -24.6199,2.41399 L -24.5548,3.10199 L -24.3116,4.63768
 L -23.9724,6.15506 L -23.5386,7.64816 L -23.012,9.11107 L -22.3945,10.538 L -21.6886,11.9234 L -20.8971,13.2617
 L -20.0232,14.5477 L -19.0702,15.7762 L -18.042,16.9425 L -16.9425,18.042 L -15.7762,19.0702 L -14.5477,20.0232
 L -13.2617,20.8971 L -12.3696,21.4247 L -13.5,23.3827 L -13.2953,23.4994 L -13.2954,23.4996 L -13.2749,23.5111
 L -13.2544,23.5228 L -13.2543,23.5226 L -13.0898,23.6145 L -13.0899,23.6147 L -13.0692,23.626 L -13.0486,23.6375
 L -13.0485,23.6374 L -12.8832,23.7279 L -12.8833,23.7281 L -12.8625,23.7392 L -12.8418,23.7505 L -12.8418,23.7503
 L -12.6756,23.8394 L -12.6757,23.8396 L -12.6549,23.8505 L -12.6341,23.8617 L -12.634,23.8615 L -12.4671,23.9491
 L -12.4672,23.9493 L -12.4463,23.9601 L -12.4254,23.971 L -12.4253,23.9708 L -12.2576,24.057 L -12.2577,24.0572
 L -12.2367,24.0677 L -12.2157,24.0785 L -12.2156,24.0783 L -12.0472,24.163 L -12.0473,24.1632 L -12.0263,24.1736
 L -12.0051,24.1842 L -12.0051,24.184 L -11.8359,24.2672 L -11.836,24.2674 L -11.8148,24.2776 L -11.7936,24.2881
 L -11.7935,24.2879 L -11.6237,24.3696 L -11.6238,24.3698 L -11.6025,24.3798 L -11.5812,24.39 L -11.5811,24.3899
 L -11.4106,24.4701 L -11.4107,24.4703 L -11.3893,24.4801 L -11.368,24.4902 L -11.3679,24.49 L -11.1966,24.5688
 L -11.1967,24.569 L -11.1753,24.5786 L -11.1538,24.5885 L -11.1537,24.5883 L -10.9818,24.6655 L -10.9819,24.6657
 L -10.9603,24.6752 L -10.9388,24.6848 L -10.9387,24.6847 L -10.7661,24.7604 L -10.7662,24.7606 L -10.7447,24.7698
 L -10.723,24.7794 L -10.7229,24.7792 L -10.5497,24.8534 L -10.5497,24.8536 L -10.528,24.8627 L -10.5063,24.872
 L -10.5063,24.8718 L -10.3324,24.9445 L -10.3324,24.9447 L -10.3107,24.9536 L -10.2889,24.9627 L -10.2888,24.9625
 L -10.1143,25.0338 L -10.1144,25.034 L -10.0925,25.0426 L -10.0707,25.0516 L -10.0706,25.0514 L -9.89545,25.1211
 L -9.89552,25.1213 L -9.8736,25.1298 L -9.85167,25.1385 L -9.85159,25.1383 L -9.67586,25.2065 L -9.67593,25.2067
 L -9.65392,25.215 L -9.63191,25.2235 L -9.63185,25.2233 L -9.45552,25.2899 L -9.4556,25.2901 L -9.43352,25.2983
 L -9.41144,25.3066 L -9.41136,25.3064 L -9.23447,25.3715 L -9.23454,25.3717 L -9.21237,25.3796 L -9.19025,25.3878
 L -9.19017,25.3876 L -9.01271,25.4511 L -9.01277,25.4513 L -8.99055,25.4591 L -8.96834,25.467 L -8.96828,25.4668
 L -8.79027,25.5288 L -8.79033,25.529 L -8.76805,25.5365 L -8.74576,25.5443 L -8.7457,25.5441 L -8.56715,25.6045
 L -8.56721,25.6047 L -8.54483,25.6121 L -8.52252,25.6196 L -8.52245,25.6194 L -8.34338,25.6783 L -8.34344,25.6785
 L -8.32095,25.6857 L -8.29861,25.693 L -8.29855,25.6928 L -8.11899,25.7502 L -8.11905,25.7504 L -8.0966,25.7573
 L -8.0741,25.7645 L -8.07404,25.7643 L -7.89397,25.82 L -7.89403,25.8202 L -7.87151,25.827 L -7.84895,25.834
 L -7.84889,25.8338 L -7.66835,25.8879 L -7.66841,25.8881 L -7.64578,25.8947 L -7.62321,25.9015 L -7.62315,25.9013
 L -7.44214,25.9539 L -7.4422,25.9541 L -7.41954,25.9604 L -7.3969,25.967 L -7.39684,25.9668 L -7.21538,26.0178
 L -7.21542,26.018 L -7.19272,26.0242 L -7.17001,26.0306 L -7.16995,26.0304 L -6.98805,26.0798 L -6.98811,26.08
 L -6.96529,26.086 L -6.94258,26.0921 L -6.94252,26.0919 L -6.76021,26.1398 L -6.76025,26.14 L -6.73738,26.1458
 L -6.71461,26.1517 L -6.71457,26.1515 L -6.53183,26.1978 L -6.53189,26.198 L -6.50905,26.2035 L -6.48615,26.2093
 L -6.4861,26.2091 L -6.30296,26.2538 L -6.30302,26.254 L -6.28014,26.2594 L -6.25719,26.2649 L -6.25714,26.2647
 L -6.07362,26.3078 L -6.07367,26.308 L -6.05074,26.3132 L -6.02774,26.3185 L -6.02769,26.3183 L -5.84381,26.3598
 L -5.84386,26.36 L -5.82085,26.365 L -5.79785,26.3701 L -5.79781,26.3699 L -5.61357,26.4098 L -5.6136,26.41
 L -5.59061,26.4147 L -5.5675,26.4197 L -5.56746,26.4195 L -5.38289,26.4578 L -5.38292,26.458 L -5.3598,26.4625
 L -5.33675,26.4673 L -5.3367,26.4671 L -5.15179,26.5037 L -5.15184,26.5039 L -5.12868,26.5083 L -5.10558,26.5129
 L -5.10553,26.5127 L -4.92032,26.5477 L -4.92035,26.5479 L -4.89723,26.552 L -4.87401,26.5564 L -4.87398,26.5562
 L -4.68846,26.5896 L -4.68849,26.5898 L -4.66536,26.5938 L -4.64207,26.5979 L -4.64204,26.5977 L -4.45624,26.6295
 L -4.45628,26.6297 L -4.43301,26.6335 L -4.40979,26.6374 L -4.40976,26.6372 L -4.22369,26.6674 L -4.22372,26.6676
 L -4.2005,26.6711 L -4.17717,26.6749 L -4.17714,26.6747 L -3.99081,26.7032 L -3.99084,26.7034 L -3.96753,26.7068
 L -3.94423,26.7103 L -3.9442,26.7101 L -3.75764,26.737 L -3.75766,26.7372 L -3.73439,26.7404 L -3.711,26.7437
 L -3.71097,26.7435 L -3.52417,26.7688 L -3.5242,26.769 L -3.50092,26.7719 L -3.47748,26.7751 L -3.47745,26.7749
 L -3.29044,26.7985 L -3.29047,26.7987 L -3.26714,26.8015 L -3.24368,26.8044 L -3.24367,26.8042 L -3.05646,26.8262
 L -3.05647,26.8264 L -3.03307,26.829 L -3.00966,26.8317 L -3.00963,26.8315 L -2.82224,26.8519 L -2.82227,26.8521
 L -2.7988,26.8544 L -2.77539,26.857 L -2.77538,26.8568 L -2.58781,26.8755 L -2.58783,26.8757 L -2.56435,26.8778
 L -2.54092,26.8802 L -2.54089,26.88 L -2.35318,26.897 L -2.3532,26.8972 L -2.32983,26.8992 L -2.30624,26.9013
 L -2.30623,26.9011 L -2.11838,26.9165 L -2.11839,26.9168 L -2.09499,26.9185 L -2.07141,26.9204 L -2.0714,26.9202
 L -1.88341,26.934 L -1.88342,26.9342 L -1.85991,26.9357 L -1.83641,26.9375 L -1.8364,26.9373 L -1.64828,26.9494
 L -1.6483,26.9496 L -1.62482,26.9509 L -1.60126,26.9525 L -1.60126,26.9523 L -1.41306,26.9628 L -1.41307,26.963
 L -1.38953,26.9641 L -1.366,26.9654 L -1.366,26.9652 L -1.1777,26.9741 L -1.17772,26.9743 L -1.15424,26.9752
 L -1.13063,26.9763 L -1.13063,26.9761 L -0.942276,26.9833 L -0.942276,26.9836 L -0.918777,26.9842 L -0.895187,26.9852
 L -0.895172,26.9849 L -0.706772,26.9905 L -0.706772,26.9907 L -0.683273,26.9912 L -0.659668,26.9919 L -0.659653,26.9917
 L -0.471207,26.9957 L -0.471207,26.9959 L -0.447617,26.9962 L -0.424088,26.9967 L -0.424088,26.9965 L -0.235611,26.9988
 L -0.235611,26.999 L -0.212143,26.9991 L -0.188492,26.9993 L -0.188492,26.9991 L 0,26.9998 L 0,27
 z
" stroke="black" fill="lightgray" stroke-width="0.5"/>
</svg>
