solid OpenSCAD_Model
  facet normal 0 0 -1
    outer loop
      vertex -52 0 -1
      vertex -50.8637 10.8114 -1
      vertex -50.8637 -10.8114 -1
    endloop
  endfacet
  facet normal 0 0 -1
    outer loop
      vertex -50.8637 -10.8114 -1
      vertex -50.8637 10.8114 -1
      vertex -47.5044 21.1503 -1
    endloop
  endfacet
  facet normal 0 0 -1
    outer loop
      vertex -50.8637 -10.8114 -1
      vertex -47.5044 21.1503 -1
      vertex -42.0689 30.5648 -1
    endloop
  endfacet
  facet normal 0 0 -1
    outer loop
      vertex -50.8637 -10.8114 -1
      vertex -42.0689 30.5648 -1
      vertex -34.7948 38.6435 -1
    endloop
  endfacet
  facet normal 0 0 -1
    outer loop
      vertex -36.4058 26.4503 -1
      vertex -34.7948 38.6435 -1
      vertex -26 45.0333 -1
    endloop
  endfacet
  facet normal 0 0 -1
    outer loop
      vertex -22.5 38.9711 -1
      vertex -26 45.0333 -1
      vertex -16.0689 49.4549 -1
    endloop
  endfacet
  facet normal 0 0 -1
    outer loop
      vertex -13.9058 42.7975 -1
      vertex -16.0689 49.4549 -1
      vertex -5.43548 51.7151 -1
    endloop
  endfacet
  facet normal 0 0 -1
    outer loop
      vertex -4.70378 44.7535 -1
      vertex -5.43548 51.7151 -1
      vertex 5.43548 51.7151 -1
    endloop
  endfacet
  facet normal 0 0 -1
    outer loop
      vertex 4.70378 44.7535 -1
      vertex 5.43548 51.7151 -1
      vertex 16.0689 49.4549 -1
    endloop
  endfacet
  facet normal 0 0 -1
    outer loop
      vertex 13.9058 42.7975 -1
      vertex 16.0689 49.4549 -1
      vertex 26 45.0333 -1
    endloop
  endfacet
  facet normal 0 0 -1
    outer loop
      vertex 22.5 38.9711 -1
      vertex 26 45.0333 -1
      vertex 34.7948 38.6435 -1
    endloop
  endfacet
  facet normal 0 0 -1
    outer loop
      vertex 30.1109 33.4415 -1
      vertex 34.7948 38.6435 -1
      vertex 42.0689 30.5648 -1
    endloop
  endfacet
  facet normal 0 0 -1
    outer loop
      vertex 36.4058 26.4503 -1
      vertex 42.0689 30.5648 -1
      vertex 47.5044 21.1503 -1
    endloop
  endfacet
  facet normal 0 0 -1
    outer loop
      vertex 41.1095 18.3031 -1
      vertex 47.5044 21.1503 -1
      vertex 50.8637 10.8114 -1
    endloop
  endfacet
  facet normal 0 0 -1
    outer loop
      vertex 45 0 -1
      vertex 50.8637 10.8114 -1
      vertex 52 0 -1
    endloop
  endfacet
  facet normal 0 0 -1
    outer loop
      vertex 44.0166 -9.35603 -1
      vertex 52 0 -1
      vertex 50.8637 -10.8114 -1
    endloop
  endfacet
  facet normal 0 0 -1
    outer loop
      vertex 41.1095 -18.3031 -1
      vertex 50.8637 -10.8114 -1
      vertex 47.5044 -21.1503 -1
    endloop
  endfacet
  facet normal 0 0 -1
    outer loop
      vertex 36.4058 -26.4503 -1
      vertex 47.5044 -21.1503 -1
      vertex 42.0689 -30.5648 -1
    endloop
  endfacet
  facet normal 0 0 -1
    outer loop
      vertex 30.1109 -33.4415 -1
      vertex 42.0689 -30.5648 -1
      vertex 34.7948 -38.6435 -1
    endloop
  endfacet
  facet normal 0 0 -1
    outer loop
      vertex 22.5 -38.9711 -1
      vertex 34.7948 -38.6435 -1
      vertex 26 -45.0333 -1
    endloop
  endfacet
  facet normal 0 0 -1
    outer loop
      vertex 13.9058 -42.7975 -1
      vertex 26 -45.0333 -1
      vertex 16.0689 -49.4549 -1
    endloop
  endfacet
  facet normal 0 0 -1
    outer loop
      vertex 4.70378 -44.7535 -1
      vertex 16.0689 -49.4549 -1
      vertex 5.43548 -51.7151 -1
    endloop
  endfacet
  facet normal 0 0 -1
    outer loop
      vertex -13.9058 -42.7975 -1
      vertex 5.43548 -51.7151 -1
      vertex -5.43548 -51.7151 -1
    endloop
  endfacet
  facet normal 0 0 -1
    outer loop
      vertex -30.1109 -33.4415 -1
      vertex -5.43548 -51.7151 -1
      vertex -16.0689 -49.4549 -1
    endloop
  endfacet
  facet normal 0 0 -1
    outer loop
      vertex -50.8637 -10.8114 -1
      vertex -16.0689 -49.4549 -1
      vertex -26 -45.0333 -1
    endloop
  endfacet
  facet normal 0 0 -1
    outer loop
      vertex -50.8637 -10.8114 -1
      vertex -26 -45.0333 -1
      vertex -34.7948 -38.6435 -1
    endloop
  endfacet
  facet normal 0 0 -1
    outer loop
      vertex -50.8637 -10.8114 -1
      vertex -34.7948 -38.6435 -1
      vertex -42.0689 -30.5648 -1
    endloop
  endfacet
  facet normal 0 0 -1
    outer loop
      vertex -50.8637 -10.8114 -1
      vertex -42.0689 -30.5648 -1
      vertex -47.5044 -21.1503 -1
    endloop
  endfacet
  facet normal 0 0 -1
    outer loop
      vertex -44.0166 -9.35603 -1
      vertex -50.8637 -10.8114 -1
      vertex -45 0 -1
    endloop
  endfacet
  facet normal 0 0 -1
    outer loop
      vertex 22.5 -38.9711 -1
      vertex 26 -45.0333 -1
      vertex 13.9058 -42.7975 -1
    endloop
  endfacet
  facet normal 0 0 -1
    outer loop
      vertex -41.1095 -18.3031 -1
      vertex -50.8637 -10.8114 -1
      vertex -44.0166 -9.35603 -1
    endloop
  endfacet
  facet normal 0 0 -1
    outer loop
      vertex -36.4058 -26.4503 -1
      vertex -50.8637 -10.8114 -1
      vertex -41.1095 -18.3031 -1
    endloop
  endfacet
  facet normal 0 0 -1
    outer loop
      vertex -13.9058 -42.7975 -1
      vertex -5.43548 -51.7151 -1
      vertex -22.5 -38.9711 -1
    endloop
  endfacet
  facet normal 0 0 -1
    outer loop
      vertex -50.8637 -10.8114 -1
      vertex -36.4058 -26.4503 -1
      vertex -16.0689 -49.4549 -1
    endloop
  endfacet
  facet normal 0 0 -1
    outer loop
      vertex -22.5 -38.9711 -1
      vertex -5.43548 -51.7151 -1
      vertex -30.1109 -33.4415 -1
    endloop
  endfacet
  facet normal 0 0 -1
    outer loop
      vertex -36.4058 -26.4503 -1
      vertex -30.1109 -33.4415 -1
      vertex -16.0689 -49.4549 -1
    endloop
  endfacet
  facet normal 0 0 -1
    outer loop
      vertex -4.70378 -44.7535 -1
      vertex 5.43548 -51.7151 -1
      vertex -13.9058 -42.7975 -1
    endloop
  endfacet
  facet normal 0 0 -1
    outer loop
      vertex 4.70378 -44.7535 -1
      vertex 5.43548 -51.7151 -1
      vertex -4.70378 -44.7535 -1
    endloop
  endfacet
  facet normal 0 0 -1
    outer loop
      vertex 44.0166 9.35603 -1
      vertex 50.8637 10.8114 -1
      vertex 45 0 -1
    endloop
  endfacet
  facet normal 0 0 -1
    outer loop
      vertex 36.4058 26.4503 -1
      vertex 47.5044 21.1503 -1
      vertex 41.1095 18.3031 -1
    endloop
  endfacet
  facet normal 0 0 -1
    outer loop
      vertex 41.1095 18.3031 -1
      vertex 50.8637 10.8114 -1
      vertex 44.0166 9.35603 -1
    endloop
  endfacet
  facet normal 0 0 -1
    outer loop
      vertex 45 0 -1
      vertex 52 0 -1
      vertex 44.0166 -9.35603 -1
    endloop
  endfacet
  facet normal 0 0 -1
    outer loop
      vertex 44.0166 -9.35603 -1
      vertex 50.8637 -10.8114 -1
      vertex 41.1095 -18.3031 -1
    endloop
  endfacet
  facet normal 0 0 -1
    outer loop
      vertex 41.1095 -18.3031 -1
      vertex 47.5044 -21.1503 -1
      vertex 36.4058 -26.4503 -1
    endloop
  endfacet
  facet normal 0 0 -1
    outer loop
      vertex 36.4058 -26.4503 -1
      vertex 42.0689 -30.5648 -1
      vertex 30.1109 -33.4415 -1
    endloop
  endfacet
  facet normal 0 0 -1
    outer loop
      vertex 30.1109 -33.4415 -1
      vertex 34.7948 -38.6435 -1
      vertex 22.5 -38.9711 -1
    endloop
  endfacet
  facet normal 0 0 -1
    outer loop
      vertex -30.1109 33.4415 -1
      vertex -26 45.0333 -1
      vertex -22.5 38.9711 -1
    endloop
  endfacet
  facet normal 0 0 -1
    outer loop
      vertex -36.4058 26.4503 -1
      vertex -26 45.0333 -1
      vertex -30.1109 33.4415 -1
    endloop
  endfacet
  facet normal 0 0 -1
    outer loop
      vertex -41.1095 18.3031 -1
      vertex -34.7948 38.6435 -1
      vertex -36.4058 26.4503 -1
    endloop
  endfacet
  facet normal 0 0 -1
    outer loop
      vertex -50.8637 -10.8114 -1
      vertex -34.7948 38.6435 -1
      vertex -41.1095 18.3031 -1
    endloop
  endfacet
  facet normal 0 0 -1
    outer loop
      vertex -50.8637 -10.8114 -1
      vertex -41.1095 18.3031 -1
      vertex -44.0166 9.35603 -1
    endloop
  endfacet
  facet normal 0 0 -1
    outer loop
      vertex -22.5 38.9711 -1
      vertex -16.0689 49.4549 -1
      vertex -13.9058 42.7975 -1
    endloop
  endfacet
  facet normal 0 0 -1
    outer loop
      vertex -45 0 -1
      vertex -50.8637 -10.8114 -1
      vertex -44.0166 9.35603 -1
    endloop
  endfacet
  facet normal 0 0 -1
    outer loop
      vertex -13.9058 42.7975 -1
      vertex -5.43548 51.7151 -1
      vertex -4.70378 44.7535 -1
    endloop
  endfacet
  facet normal 0 0 -1
    outer loop
      vertex -4.70378 44.7535 -1
      vertex 5.43548 51.7151 -1
      vertex 4.70378 44.7535 -1
    endloop
  endfacet
  facet normal 0 0 -1
    outer loop
      vertex 4.70378 44.7535 -1
      vertex 16.0689 49.4549 -1
      vertex 13.9058 42.7975 -1
    endloop
  endfacet
  facet normal 0 0 -1
    outer loop
      vertex 13.9058 42.7975 -1
      vertex 26 45.0333 -1
      vertex 22.5 38.9711 -1
    endloop
  endfacet
  facet normal 0 0 -1
    outer loop
      vertex 22.5 38.9711 -1
      vertex 34.7948 38.6435 -1
      vertex 30.1109 33.4415 -1
    endloop
  endfacet
  facet normal 0 0 -1
    outer loop
      vertex 30.1109 33.4415 -1
      vertex 42.0689 30.5648 -1
      vertex 36.4058 26.4503 -1
    endloop
  endfacet
  facet normal 0 0 -1
    outer loop
      vertex 13.9058 -42.7975 -1
      vertex 16.0689 -49.4549 -1
      vertex 4.70378 -44.7535 -1
    endloop
  endfacet
  facet normal -0.994522 0.104528 0
    outer loop
      vertex -52 0 -1
      vertex -52 0 0
      vertex -50.8637 10.8114 -1
    endloop
  endfacet
  facet normal -0.994522 0.104528 0
    outer loop
      vertex -50.8637 10.8114 -1
      vertex -52 0 0
      vertex -50.8637 10.8114 0
    endloop
  endfacet
  facet normal -0.994522 -0.104528 0
    outer loop
      vertex -52 0 -1
      vertex -50.8637 -10.8114 -1
      vertex -52 0 0
    endloop
  endfacet
  facet normal -0.994522 -0.104528 0
    outer loop
      vertex -52 0 0
      vertex -50.8637 -10.8114 -1
      vertex -50.8637 -10.8114 0
    endloop
  endfacet
  facet normal -0.951057 -0.309017 0
    outer loop
      vertex -50.8637 -10.8114 -1
      vertex -47.5044 -21.1503 -1
      vertex -50.8637 -10.8114 0
    endloop
  endfacet
  facet normal -0.951057 -0.309017 0
    outer loop
      vertex -50.8637 -10.8114 0
      vertex -47.5044 -21.1503 -1
      vertex -47.5044 -21.1503 0
    endloop
  endfacet
  facet normal -0.866025 -0.5 0
    outer loop
      vertex -47.5044 -21.1503 -1
      vertex -42.0689 -30.5648 -1
      vertex -47.5044 -21.1503 0
    endloop
  endfacet
  facet normal -0.866025 -0.5 0
    outer loop
      vertex -47.5044 -21.1503 0
      vertex -42.0689 -30.5648 -1
      vertex -42.0689 -30.5648 0
    endloop
  endfacet
  facet normal -0.743145 -0.669131 0
    outer loop
      vertex -42.0689 -30.5648 -1
      vertex -34.7948 -38.6435 -1
      vertex -42.0689 -30.5648 0
    endloop
  endfacet
  facet normal -0.743145 -0.669131 0
    outer loop
      vertex -42.0689 -30.5648 0
      vertex -34.7948 -38.6435 -1
      vertex -34.7948 -38.6435 0
    endloop
  endfacet
  facet normal -0.587785 -0.809017 0
    outer loop
      vertex -34.7948 -38.6435 0
      vertex -34.7948 -38.6435 -1
      vertex -26 -45.0333 -1
    endloop
  endfacet
  facet normal -0.587785 -0.809017 0
    outer loop
      vertex -26 -45.0333 0
      vertex -34.7948 -38.6435 0
      vertex -26 -45.0333 -1
    endloop
  endfacet
  facet normal -0.406737 -0.913545 0
    outer loop
      vertex -26 -45.0333 0
      vertex -26 -45.0333 -1
      vertex -16.0689 -49.4549 -1
    endloop
  endfacet
  facet normal -0.406737 -0.913545 0
    outer loop
      vertex -16.0689 -49.4549 0
      vertex -26 -45.0333 0
      vertex -16.0689 -49.4549 -1
    endloop
  endfacet
  facet normal -0.207912 -0.978148 0
    outer loop
      vertex -16.0689 -49.4549 0
      vertex -16.0689 -49.4549 -1
      vertex -5.43548 -51.7151 -1
    endloop
  endfacet
  facet normal -0.207912 -0.978148 0
    outer loop
      vertex -5.43548 -51.7151 0
      vertex -16.0689 -49.4549 0
      vertex -5.43548 -51.7151 -1
    endloop
  endfacet
  facet normal 0 -1 0
    outer loop
      vertex -5.43548 -51.7151 0
      vertex -5.43548 -51.7151 -1
      vertex 5.43548 -51.7151 -1
    endloop
  endfacet
  facet normal 0 -1 0
    outer loop
      vertex 5.43548 -51.7151 0
      vertex -5.43548 -51.7151 0
      vertex 5.43548 -51.7151 -1
    endloop
  endfacet
  facet normal 0.207912 -0.978148 0
    outer loop
      vertex 5.43548 -51.7151 0
      vertex 5.43548 -51.7151 -1
      vertex 16.0689 -49.4549 -1
    endloop
  endfacet
  facet normal 0.207912 -0.978148 0
    outer loop
      vertex 16.0689 -49.4549 0
      vertex 5.43548 -51.7151 0
      vertex 16.0689 -49.4549 -1
    endloop
  endfacet
  facet normal 0.406737 -0.913545 0
    outer loop
      vertex 16.0689 -49.4549 0
      vertex 16.0689 -49.4549 -1
      vertex 26 -45.0333 -1
    endloop
  endfacet
  facet normal 0.406737 -0.913545 0
    outer loop
      vertex 26 -45.0333 0
      vertex 16.0689 -49.4549 0
      vertex 26 -45.0333 -1
    endloop
  endfacet
  facet normal 0.587785 -0.809017 0
    outer loop
      vertex 26 -45.0333 0
      vertex 26 -45.0333 -1
      vertex 34.7948 -38.6435 -1
    endloop
  endfacet
  facet normal 0.587785 -0.809017 0
    outer loop
      vertex 34.7948 -38.6435 0
      vertex 26 -45.0333 0
      vertex 34.7948 -38.6435 -1
    endloop
  endfacet
  facet normal 0.743145 -0.669131 0
    outer loop
      vertex 34.7948 -38.6435 0
      vertex 34.7948 -38.6435 -1
      vertex 42.0689 -30.5648 -1
    endloop
  endfacet
  facet normal 0.743145 -0.669131 0
    outer loop
      vertex 42.0689 -30.5648 0
      vertex 34.7948 -38.6435 0
      vertex 42.0689 -30.5648 -1
    endloop
  endfacet
  facet normal 0.866025 -0.5 0
    outer loop
      vertex 42.0689 -30.5648 0
      vertex 42.0689 -30.5648 -1
      vertex 47.5044 -21.1503 -1
    endloop
  endfacet
  facet normal 0.866025 -0.5 0
    outer loop
      vertex 47.5044 -21.1503 0
      vertex 42.0689 -30.5648 0
      vertex 47.5044 -21.1503 -1
    endloop
  endfacet
  facet normal 0.951057 -0.309017 0
    outer loop
      vertex 47.5044 -21.1503 0
      vertex 47.5044 -21.1503 -1
      vertex 50.8637 -10.8114 -1
    endloop
  endfacet
  facet normal 0.951057 -0.309017 0
    outer loop
      vertex 50.8637 -10.8114 0
      vertex 47.5044 -21.1503 0
      vertex 50.8637 -10.8114 -1
    endloop
  endfacet
  facet normal 0.994522 -0.104528 0
    outer loop
      vertex 50.8637 -10.8114 0
      vertex 50.8637 -10.8114 -1
      vertex 52 0 -1
    endloop
  endfacet
  facet normal 0.994522 -0.104528 0
    outer loop
      vertex 52 0 0
      vertex 50.8637 -10.8114 0
      vertex 52 0 -1
    endloop
  endfacet
  facet normal 0.994522 0.104528 0
    outer loop
      vertex 52 0 -1
      vertex 50.8637 10.8114 -1
      vertex 50.8637 10.8114 0
    endloop
  endfacet
  facet normal 0.994522 0.104528 0
    outer loop
      vertex 52 0 0
      vertex 52 0 -1
      vertex 50.8637 10.8114 0
    endloop
  endfacet
  facet normal 0.951057 0.309017 0
    outer loop
      vertex 50.8637 10.8114 -1
      vertex 47.5044 21.1503 -1
      vertex 47.5044 21.1503 0
    endloop
  endfacet
  facet normal 0.951057 0.309017 0
    outer loop
      vertex 50.8637 10.8114 0
      vertex 50.8637 10.8114 -1
      vertex 47.5044 21.1503 0
    endloop
  endfacet
  facet normal 0.866025 0.5 0
    outer loop
      vertex 47.5044 21.1503 -1
      vertex 42.0689 30.5648 -1
      vertex 42.0689 30.5648 0
    endloop
  endfacet
  facet normal 0.866025 0.5 0
    outer loop
      vertex 47.5044 21.1503 0
      vertex 47.5044 21.1503 -1
      vertex 42.0689 30.5648 0
    endloop
  endfacet
  facet normal 0.743145 0.669131 0
    outer loop
      vertex 42.0689 30.5648 -1
      vertex 34.7948 38.6435 -1
      vertex 34.7948 38.6435 0
    endloop
  endfacet
  facet normal 0.743145 0.669131 0
    outer loop
      vertex 42.0689 30.5648 0
      vertex 42.0689 30.5648 -1
      vertex 34.7948 38.6435 0
    endloop
  endfacet
  facet normal 0.587785 0.809017 0
    outer loop
      vertex 26 45.0333 -1
      vertex 26 45.0333 0
      vertex 34.7948 38.6435 -1
    endloop
  endfacet
  facet normal 0.587785 0.809017 0
    outer loop
      vertex 34.7948 38.6435 -1
      vertex 26 45.0333 0
      vertex 34.7948 38.6435 0
    endloop
  endfacet
  facet normal 0.406737 0.913545 0
    outer loop
      vertex 16.0689 49.4549 -1
      vertex 16.0689 49.4549 0
      vertex 26 45.0333 -1
    endloop
  endfacet
  facet normal 0.406737 0.913545 0
    outer loop
      vertex 26 45.0333 -1
      vertex 16.0689 49.4549 0
      vertex 26 45.0333 0
    endloop
  endfacet
  facet normal 0.207912 0.978148 0
    outer loop
      vertex 5.43548 51.7151 -1
      vertex 5.43548 51.7151 0
      vertex 16.0689 49.4549 -1
    endloop
  endfacet
  facet normal 0.207912 0.978148 0
    outer loop
      vertex 16.0689 49.4549 -1
      vertex 5.43548 51.7151 0
      vertex 16.0689 49.4549 0
    endloop
  endfacet
  facet normal 0 1 0
    outer loop
      vertex -5.43548 51.7151 -1
      vertex -5.43548 51.7151 0
      vertex 5.43548 51.7151 -1
    endloop
  endfacet
  facet normal 0 1 0
    outer loop
      vertex 5.43548 51.7151 -1
      vertex -5.43548 51.7151 0
      vertex 5.43548 51.7151 0
    endloop
  endfacet
  facet normal -0.207912 0.978148 0
    outer loop
      vertex -16.0689 49.4549 -1
      vertex -16.0689 49.4549 0
      vertex -5.43548 51.7151 -1
    endloop
  endfacet
  facet normal -0.207912 0.978148 0
    outer loop
      vertex -5.43548 51.7151 -1
      vertex -16.0689 49.4549 0
      vertex -5.43548 51.7151 0
    endloop
  endfacet
  facet normal -0.406737 0.913545 0
    outer loop
      vertex -26 45.0333 -1
      vertex -26 45.0333 0
      vertex -16.0689 49.4549 -1
    endloop
  endfacet
  facet normal -0.406737 0.913545 0
    outer loop
      vertex -16.0689 49.4549 -1
      vertex -26 45.0333 0
      vertex -16.0689 49.4549 0
    endloop
  endfacet
  facet normal -0.587785 0.809017 0
    outer loop
      vertex -34.7948 38.6435 -1
      vertex -34.7948 38.6435 0
      vertex -26 45.0333 -1
    endloop
  endfacet
  facet normal -0.587785 0.809017 0
    outer loop
      vertex -26 45.0333 -1
      vertex -34.7948 38.6435 0
      vertex -26 45.0333 0
    endloop
  endfacet
  facet normal -0.743145 0.669131 0
    outer loop
      vertex -42.0689 30.5648 -1
      vertex -42.0689 30.5648 0
      vertex -34.7948 38.6435 -1
    endloop
  endfacet
  facet normal -0.743145 0.669131 0
    outer loop
      vertex -34.7948 38.6435 -1
      vertex -42.0689 30.5648 0
      vertex -34.7948 38.6435 0
    endloop
  endfacet
  facet normal -0.866025 0.5 0
    outer loop
      vertex -47.5044 21.1503 -1
      vertex -47.5044 21.1503 0
      vertex -42.0689 30.5648 -1
    endloop
  endfacet
  facet normal -0.866025 0.5 0
    outer loop
      vertex -42.0689 30.5648 -1
      vertex -47.5044 21.1503 0
      vertex -42.0689 30.5648 0
    endloop
  endfacet
  facet normal -0.951057 0.309017 0
    outer loop
      vertex -50.8637 10.8114 -1
      vertex -50.8637 10.8114 0
      vertex -47.5044 21.1503 -1
    endloop
  endfacet
  facet normal -0.951057 0.309017 0
    outer loop
      vertex -47.5044 21.1503 -1
      vertex -50.8637 10.8114 0
      vertex -47.5044 21.1503 0
    endloop
  endfacet
  facet normal 0.994522 -0.104528 0
    outer loop
      vertex -44.0166 9.35603 -1
      vertex -44.0166 9.35603 0
      vertex -45 0 0
    endloop
  endfacet
  facet normal 0.994522 -0.104528 0
    outer loop
      vertex -45 0 -1
      vertex -44.0166 9.35603 -1
      vertex -45 0 0
    endloop
  endfacet
  facet normal 0.994522 0.104528 0
    outer loop
      vertex -45 0 0
      vertex -44.0166 -9.35603 0
      vertex -44.0166 -9.35603 -1
    endloop
  endfacet
  facet normal 0.994522 0.104528 0
    outer loop
      vertex -45 0 -1
      vertex -45 0 0
      vertex -44.0166 -9.35603 -1
    endloop
  endfacet
  facet normal 0.951057 -0.309017 0
    outer loop
      vertex -41.1095 18.3031 -1
      vertex -41.1095 18.3031 9
      vertex -43.8074 10 9
    endloop
  endfacet
  facet normal 0.951057 -0.309017 0
    outer loop
      vertex -44.0166 9.35603 0
      vertex -41.1095 18.3031 -1
      vertex -43.8074 10 0
    endloop
  endfacet
  facet normal 0.951057 -0.309017 0
    outer loop
      vertex -43.8074 10 0
      vertex -41.1095 18.3031 -1
      vertex -43.8074 10 9
    endloop
  endfacet
  facet normal 0.951057 -0.309017 0
    outer loop
      vertex -44.0166 9.35603 -1
      vertex -41.1095 18.3031 -1
      vertex -44.0166 9.35603 0
    endloop
  endfacet
  facet normal 0.866025 -0.5 0
    outer loop
      vertex -36.4058 26.4503 -1
      vertex -36.4058 26.4503 9
      vertex -41.1095 18.3031 9
    endloop
  endfacet
  facet normal 0.866025 -0.5 0
    outer loop
      vertex -41.1095 18.3031 -1
      vertex -36.4058 26.4503 -1
      vertex -41.1095 18.3031 9
    endloop
  endfacet
  facet normal 0.743145 -0.669131 0
    outer loop
      vertex -30.1109 33.4415 -1
      vertex -30.1109 33.4415 9
      vertex -36.4058 26.4503 9
    endloop
  endfacet
  facet normal 0.743145 -0.669131 0
    outer loop
      vertex -36.4058 26.4503 -1
      vertex -30.1109 33.4415 -1
      vertex -36.4058 26.4503 9
    endloop
  endfacet
  facet normal 0.587785 -0.809017 0
    outer loop
      vertex -22.5 38.9711 -1
      vertex -22.5 38.9711 9
      vertex -30.1109 33.4415 9
    endloop
  endfacet
  facet normal 0.587785 -0.809017 0
    outer loop
      vertex -30.1109 33.4415 -1
      vertex -22.5 38.9711 -1
      vertex -30.1109 33.4415 9
    endloop
  endfacet
  facet normal 0.406737 -0.913545 0
    outer loop
      vertex -13.9058 42.7975 -1
      vertex -13.9058 42.7975 9
      vertex -22.5 38.9711 9
    endloop
  endfacet
  facet normal 0.406737 -0.913545 0
    outer loop
      vertex -22.5 38.9711 -1
      vertex -13.9058 42.7975 -1
      vertex -22.5 38.9711 9
    endloop
  endfacet
  facet normal 0.207912 -0.978148 0
    outer loop
      vertex -4.70378 44.7535 -1
      vertex -4.70378 44.7535 0
      vertex -10 43.6277 0
    endloop
  endfacet
  facet normal 0.207912 -0.978148 0
    outer loop
      vertex -13.9058 42.7975 -1
      vertex -4.70378 44.7535 -1
      vertex -10 43.6277 0
    endloop
  endfacet
  facet normal 0.207912 -0.978148 0
    outer loop
      vertex -10 43.6277 9
      vertex -13.9058 42.7975 9
      vertex -10 43.6277 0
    endloop
  endfacet
  facet normal 0.207912 -0.978148 0
    outer loop
      vertex -13.9058 42.7975 9
      vertex -13.9058 42.7975 -1
      vertex -10 43.6277 0
    endloop
  endfacet
  facet normal 0 -1 0
    outer loop
      vertex 4.70378 44.7535 -1
      vertex 4.70378 44.7535 0
      vertex -4.70378 44.7535 0
    endloop
  endfacet
  facet normal 0 -1 0
    outer loop
      vertex -4.70378 44.7535 -1
      vertex 4.70378 44.7535 -1
      vertex -4.70378 44.7535 0
    endloop
  endfacet
  facet normal -0.207912 -0.978148 0
    outer loop
      vertex 13.9058 42.7975 -1
      vertex 13.9058 42.7975 9
      vertex 10 43.6277 9
    endloop
  endfacet
  facet normal -0.207912 -0.978148 0
    outer loop
      vertex 4.70378 44.7535 0
      vertex 13.9058 42.7975 -1
      vertex 10 43.6277 0
    endloop
  endfacet
  facet normal -0.207912 -0.978148 0
    outer loop
      vertex 10 43.6277 0
      vertex 13.9058 42.7975 -1
      vertex 10 43.6277 9
    endloop
  endfacet
  facet normal -0.207912 -0.978148 0
    outer loop
      vertex 4.70378 44.7535 -1
      vertex 13.9058 42.7975 -1
      vertex 4.70378 44.7535 0
    endloop
  endfacet
  facet normal -0.406737 -0.913545 0
    outer loop
      vertex 22.5 38.9711 -1
      vertex 22.5 38.9711 9
      vertex 13.9058 42.7975 9
    endloop
  endfacet
  facet normal -0.406737 -0.913545 0
    outer loop
      vertex 13.9058 42.7975 -1
      vertex 22.5 38.9711 -1
      vertex 13.9058 42.7975 9
    endloop
  endfacet
  facet normal -0.587785 -0.809017 0
    outer loop
      vertex 30.1109 33.4415 -1
      vertex 30.1109 33.4415 9
      vertex 22.5 38.9711 9
    endloop
  endfacet
  facet normal -0.587785 -0.809017 0
    outer loop
      vertex 22.5 38.9711 -1
      vertex 30.1109 33.4415 -1
      vertex 22.5 38.9711 9
    endloop
  endfacet
  facet normal -0.743145 -0.669131 0
    outer loop
      vertex 36.4058 26.4503 9
      vertex 30.1109 33.4415 9
      vertex 36.4058 26.4503 -1
    endloop
  endfacet
  facet normal -0.743145 -0.669131 0
    outer loop
      vertex 36.4058 26.4503 -1
      vertex 30.1109 33.4415 9
      vertex 30.1109 33.4415 -1
    endloop
  endfacet
  facet normal -0.866025 -0.5 0
    outer loop
      vertex 41.1095 18.3031 9
      vertex 36.4058 26.4503 9
      vertex 41.1095 18.3031 -1
    endloop
  endfacet
  facet normal -0.866025 -0.5 0
    outer loop
      vertex 41.1095 18.3031 -1
      vertex 36.4058 26.4503 9
      vertex 36.4058 26.4503 -1
    endloop
  endfacet
  facet normal -0.951057 -0.309017 0
    outer loop
      vertex 44.0166 9.35603 0
      vertex 43.8074 10 0
      vertex 44.0166 9.35603 -1
    endloop
  endfacet
  facet normal -0.951057 -0.309017 0
    outer loop
      vertex 41.1095 18.3031 9
      vertex 43.8074 10 0
      vertex 43.8074 10 9
    endloop
  endfacet
  facet normal -0.951057 -0.309017 0
    outer loop
      vertex 44.0166 9.35603 -1
      vertex 43.8074 10 0
      vertex 41.1095 18.3031 9
    endloop
  endfacet
  facet normal -0.951057 -0.309017 0
    outer loop
      vertex 44.0166 9.35603 -1
      vertex 41.1095 18.3031 9
      vertex 41.1095 18.3031 -1
    endloop
  endfacet
  facet normal -0.994522 -0.104528 0
    outer loop
      vertex 45 0 0
      vertex 44.0166 9.35603 0
      vertex 45 0 -1
    endloop
  endfacet
  facet normal -0.994522 -0.104528 0
    outer loop
      vertex 45 0 -1
      vertex 44.0166 9.35603 0
      vertex 44.0166 9.35603 -1
    endloop
  endfacet
  facet normal -0.994522 0.104528 0
    outer loop
      vertex 45 0 0
      vertex 45 0 -1
      vertex 44.0166 -9.35603 0
    endloop
  endfacet
  facet normal -0.994522 0.104528 0
    outer loop
      vertex 44.0166 -9.35603 0
      vertex 45 0 -1
      vertex 44.0166 -9.35603 -1
    endloop
  endfacet
  facet normal -0.951057 0.309017 0
    outer loop
      vertex 43.8074 -10 9
      vertex 43.8074 -10 0
      vertex 41.1095 -18.3031 9
    endloop
  endfacet
  facet normal -0.951057 0.309017 0
    outer loop
      vertex 44.0166 -9.35603 -1
      vertex 43.8074 -10 0
      vertex 44.0166 -9.35603 0
    endloop
  endfacet
  facet normal -0.951057 0.309017 0
    outer loop
      vertex 41.1095 -18.3031 9
      vertex 43.8074 -10 0
      vertex 44.0166 -9.35603 -1
    endloop
  endfacet
  facet normal -0.951057 0.309017 0
    outer loop
      vertex 41.1095 -18.3031 9
      vertex 44.0166 -9.35603 -1
      vertex 41.1095 -18.3031 -1
    endloop
  endfacet
  facet normal -0.866025 0.5 0
    outer loop
      vertex 41.1095 -18.3031 9
      vertex 41.1095 -18.3031 -1
      vertex 36.4058 -26.4503 9
    endloop
  endfacet
  facet normal -0.866025 0.5 0
    outer loop
      vertex 36.4058 -26.4503 9
      vertex 41.1095 -18.3031 -1
      vertex 36.4058 -26.4503 -1
    endloop
  endfacet
  facet normal -0.743145 0.669131 0
    outer loop
      vertex 36.4058 -26.4503 9
      vertex 36.4058 -26.4503 -1
      vertex 30.1109 -33.4415 9
    endloop
  endfacet
  facet normal -0.743145 0.669131 0
    outer loop
      vertex 30.1109 -33.4415 9
      vertex 36.4058 -26.4503 -1
      vertex 30.1109 -33.4415 -1
    endloop
  endfacet
  facet normal -0.587785 0.809017 0
    outer loop
      vertex 30.1109 -33.4415 9
      vertex 30.1109 -33.4415 -1
      vertex 22.5 -38.9711 9
    endloop
  endfacet
  facet normal -0.587785 0.809017 0
    outer loop
      vertex 22.5 -38.9711 9
      vertex 30.1109 -33.4415 -1
      vertex 22.5 -38.9711 -1
    endloop
  endfacet
  facet normal -0.406737 0.913545 0
    outer loop
      vertex 22.5 -38.9711 9
      vertex 22.5 -38.9711 -1
      vertex 13.9058 -42.7975 9
    endloop
  endfacet
  facet normal -0.406737 0.913545 0
    outer loop
      vertex 13.9058 -42.7975 9
      vertex 22.5 -38.9711 -1
      vertex 13.9058 -42.7975 -1
    endloop
  endfacet
  facet normal -0.207912 0.978148 0
    outer loop
      vertex 10 -43.6277 0
      vertex 10 -43.6277 9
      vertex 13.9058 -42.7975 9
    endloop
  endfacet
  facet normal -0.207912 0.978148 0
    outer loop
      vertex 10 -43.6277 0
      vertex 13.9058 -42.7975 9
      vertex 13.9058 -42.7975 -1
    endloop
  endfacet
  facet normal -0.207912 0.978148 0
    outer loop
      vertex 10 -43.6277 0
      vertex 13.9058 -42.7975 -1
      vertex 4.70378 -44.7535 0
    endloop
  endfacet
  facet normal -0.207912 0.978148 0
    outer loop
      vertex 13.9058 -42.7975 -1
      vertex 4.70378 -44.7535 -1
      vertex 4.70378 -44.7535 0
    endloop
  endfacet
  facet normal 0 1 0
    outer loop
      vertex 4.70378 -44.7535 0
      vertex 4.70378 -44.7535 -1
      vertex -4.70378 -44.7535 0
    endloop
  endfacet
  facet normal 0 1 0
    outer loop
      vertex -4.70378 -44.7535 0
      vertex 4.70378 -44.7535 -1
      vertex -4.70378 -44.7535 -1
    endloop
  endfacet
  facet normal 0.207912 0.978148 0
    outer loop
      vertex -10 -43.6277 9
      vertex -10 -43.6277 0
      vertex -13.9058 -42.7975 9
    endloop
  endfacet
  facet normal 0.207912 0.978148 0
    outer loop
      vertex -4.70378 -44.7535 -1
      vertex -10 -43.6277 0
      vertex -4.70378 -44.7535 0
    endloop
  endfacet
  facet normal 0.207912 0.978148 0
    outer loop
      vertex -13.9058 -42.7975 -1
      vertex -10 -43.6277 0
      vertex -4.70378 -44.7535 -1
    endloop
  endfacet
  facet normal 0.207912 0.978148 0
    outer loop
      vertex -13.9058 -42.7975 9
      vertex -10 -43.6277 0
      vertex -13.9058 -42.7975 -1
    endloop
  endfacet
  facet normal 0.406737 0.913545 0
    outer loop
      vertex -13.9058 -42.7975 9
      vertex -13.9058 -42.7975 -1
      vertex -22.5 -38.9711 9
    endloop
  endfacet
  facet normal 0.406737 0.913545 0
    outer loop
      vertex -22.5 -38.9711 9
      vertex -13.9058 -42.7975 -1
      vertex -22.5 -38.9711 -1
    endloop
  endfacet
  facet normal 0.587785 0.809017 0
    outer loop
      vertex -22.5 -38.9711 9
      vertex -22.5 -38.9711 -1
      vertex -30.1109 -33.4415 9
    endloop
  endfacet
  facet normal 0.587785 0.809017 0
    outer loop
      vertex -30.1109 -33.4415 9
      vertex -22.5 -38.9711 -1
      vertex -30.1109 -33.4415 -1
    endloop
  endfacet
  facet normal 0.743145 0.669131 0
    outer loop
      vertex -36.4058 -26.4503 9
      vertex -30.1109 -33.4415 9
      vertex -30.1109 -33.4415 -1
    endloop
  endfacet
  facet normal 0.743145 0.669131 0
    outer loop
      vertex -36.4058 -26.4503 -1
      vertex -36.4058 -26.4503 9
      vertex -30.1109 -33.4415 -1
    endloop
  endfacet
  facet normal 0.866025 0.5 0
    outer loop
      vertex -41.1095 -18.3031 9
      vertex -36.4058 -26.4503 9
      vertex -36.4058 -26.4503 -1
    endloop
  endfacet
  facet normal 0.866025 0.5 0
    outer loop
      vertex -41.1095 -18.3031 -1
      vertex -41.1095 -18.3031 9
      vertex -36.4058 -26.4503 -1
    endloop
  endfacet
  facet normal 0.951057 0.309017 0
    outer loop
      vertex -41.1095 -18.3031 9
      vertex -43.8074 -10 0
      vertex -43.8074 -10 9
    endloop
  endfacet
  facet normal 0.951057 0.309017 0
    outer loop
      vertex -41.1095 -18.3031 -1
      vertex -43.8074 -10 0
      vertex -41.1095 -18.3031 9
    endloop
  endfacet
  facet normal 0.951057 0.309017 0
    outer loop
      vertex -44.0166 -9.35603 0
      vertex -43.8074 -10 0
      vertex -41.1095 -18.3031 -1
    endloop
  endfacet
  facet normal 0.951057 0.309017 0
    outer loop
      vertex -44.0166 -9.35603 -1
      vertex -44.0166 -9.35603 0
      vertex -41.1095 -18.3031 -1
    endloop
  endfacet
  facet normal 0 0 1
    outer loop
      vertex -50.8637 -10.8114 0
      vertex -47.5044 -21.1503 0
      vertex -42.0689 -30.5648 0
    endloop
  endfacet
  facet normal 0 0 1
    outer loop
      vertex -38.8328 -28.2137 0
      vertex -50.8637 -10.8114 0
      vertex -34.7948 -38.6435 0
    endloop
  endfacet
  facet normal 0 0 1
    outer loop
      vertex -34.7948 -38.6435 0
      vertex -50.8637 -10.8114 0
      vertex -42.0689 -30.5648 0
    endloop
  endfacet
  facet normal 0 0 1
    outer loop
      vertex -38.8328 -28.2137 0
      vertex -43.8502 -19.5234 0
      vertex -50.8637 -10.8114 0
    endloop
  endfacet
  facet normal 0 0 1
    outer loop
      vertex -44.0166 -9.35603 0
      vertex -45 0 0
      vertex -50.8637 -10.8114 0
    endloop
  endfacet
  facet normal 0 0 1
    outer loop
      vertex 32.1183 35.671 0
      vertex 38.8328 28.2137 0
      vertex 42.0689 30.5648 0
    endloop
  endfacet
  facet normal 0 0 1
    outer loop
      vertex 24 41.5692 0
      vertex 32.1183 35.671 0
      vertex 34.7948 38.6435 0
    endloop
  endfacet
  facet normal 0 0 1
    outer loop
      vertex 10 46.678 0
      vertex 14.8328 45.6507 0
      vertex 16.0689 49.4549 0
    endloop
  endfacet
  facet normal 0 0 1
    outer loop
      vertex -43.8074 -10 0
      vertex -44.0166 -9.35603 0
      vertex -46.9445 -10 0
    endloop
  endfacet
  facet normal 0 0 1
    outer loop
      vertex 44.0166 9.35603 0
      vertex 45 0 0
      vertex 50.8637 10.8114 0
    endloop
  endfacet
  facet normal 0 0 1
    outer loop
      vertex -24 41.5692 0
      vertex -14.8328 45.6507 0
      vertex -16.0689 49.4549 0
    endloop
  endfacet
  facet normal 0 0 1
    outer loop
      vertex -46.9445 10 0
      vertex -43.8502 19.5234 0
      vertex -42.0689 30.5648 0
    endloop
  endfacet
  facet normal 0 0 1
    outer loop
      vertex -32.1183 35.671 0
      vertex -24 41.5692 0
      vertex -26 45.0333 0
    endloop
  endfacet
  facet normal 0 0 1
    outer loop
      vertex -50.8637 10.8114 0
      vertex -50.8637 -10.8114 0
      vertex -47.5044 21.1503 0
    endloop
  endfacet
  facet normal 0 0 1
    outer loop
      vertex -52 0 0
      vertex -50.8637 -10.8114 0
      vertex -50.8637 10.8114 0
    endloop
  endfacet
  facet normal 0 0 1
    outer loop
      vertex -4.70378 44.7535 0
      vertex 4.70378 44.7535 0
      vertex 5.43548 51.7151 0
    endloop
  endfacet
  facet normal 0 0 1
    outer loop
      vertex -10 46.678 0
      vertex -10 43.6277 0
      vertex -5.43548 51.7151 0
    endloop
  endfacet
  facet normal 0 0 1
    outer loop
      vertex 4.70378 44.7535 0
      vertex 10 43.6277 0
      vertex 10 46.678 0
    endloop
  endfacet
  facet normal 0 0 1
    outer loop
      vertex 46.9445 -10 0
      vertex 43.8502 -19.5234 0
      vertex 50.8637 -10.8114 0
    endloop
  endfacet
  facet normal 0 0 1
    outer loop
      vertex -47.5044 21.1503 0
      vertex -46.9445 10 0
      vertex -42.0689 30.5648 0
    endloop
  endfacet
  facet normal 0 0 1
    outer loop
      vertex -47.5044 21.1503 0
      vertex -50.8637 -10.8114 0
      vertex -46.9445 10 0
    endloop
  endfacet
  facet normal 0 0 1
    outer loop
      vertex -42.0689 30.5648 0
      vertex -43.8502 19.5234 0
      vertex -34.7948 38.6435 0
    endloop
  endfacet
  facet normal 0 0 1
    outer loop
      vertex -38.8328 28.2137 0
      vertex -32.1183 35.671 0
      vertex -34.7948 38.6435 0
    endloop
  endfacet
  facet normal 0 0 1
    outer loop
      vertex -43.8502 19.5234 0
      vertex -38.8328 28.2137 0
      vertex -34.7948 38.6435 0
    endloop
  endfacet
  facet normal 0 0 1
    outer loop
      vertex -34.7948 38.6435 0
      vertex -32.1183 35.671 0
      vertex -26 45.0333 0
    endloop
  endfacet
  facet normal 0 0 1
    outer loop
      vertex -26 45.0333 0
      vertex -24 41.5692 0
      vertex -16.0689 49.4549 0
    endloop
  endfacet
  facet normal 0 0 1
    outer loop
      vertex -16.0689 49.4549 0
      vertex -14.8328 45.6507 0
      vertex -5.43548 51.7151 0
    endloop
  endfacet
  facet normal 0 0 1
    outer loop
      vertex -45 0 0
      vertex -44.0166 9.35603 0
      vertex -50.8637 -10.8114 0
    endloop
  endfacet
  facet normal 0 0 1
    outer loop
      vertex -14.8328 45.6507 0
      vertex -10 46.678 0
      vertex -5.43548 51.7151 0
    endloop
  endfacet
  facet normal 0 0 1
    outer loop
      vertex -5.43548 51.7151 0
      vertex -10 43.6277 0
      vertex 5.43548 51.7151 0
    endloop
  endfacet
  facet normal 0 0 1
    outer loop
      vertex -43.8074 10 0
      vertex -50.8637 -10.8114 0
      vertex -44.0166 9.35603 0
    endloop
  endfacet
  facet normal 0 0 1
    outer loop
      vertex -10 43.6277 0
      vertex -4.70378 44.7535 0
      vertex 5.43548 51.7151 0
    endloop
  endfacet
  facet normal 0 0 1
    outer loop
      vertex -43.8074 10 0
      vertex -46.9445 10 0
      vertex -50.8637 -10.8114 0
    endloop
  endfacet
  facet normal 0 0 1
    outer loop
      vertex 5.43548 51.7151 0
      vertex 4.70378 44.7535 0
      vertex 16.0689 49.4549 0
    endloop
  endfacet
  facet normal 0 0 1
    outer loop
      vertex 38.8328 28.2137 0
      vertex 43.8502 19.5234 0
      vertex 47.5044 21.1503 0
    endloop
  endfacet
  facet normal 0 0 1
    outer loop
      vertex 4.70378 44.7535 0
      vertex 10 46.678 0
      vertex 16.0689 49.4549 0
    endloop
  endfacet
  facet normal 0 0 1
    outer loop
      vertex 16.0689 49.4549 0
      vertex 14.8328 45.6507 0
      vertex 26 45.0333 0
    endloop
  endfacet
  facet normal 0 0 1
    outer loop
      vertex 26 45.0333 0
      vertex 24 41.5692 0
      vertex 34.7948 38.6435 0
    endloop
  endfacet
  facet normal 0 0 1
    outer loop
      vertex 34.7948 38.6435 0
      vertex 32.1183 35.671 0
      vertex 42.0689 30.5648 0
    endloop
  endfacet
  facet normal 0 0 1
    outer loop
      vertex 42.0689 30.5648 0
      vertex 38.8328 28.2137 0
      vertex 47.5044 21.1503 0
    endloop
  endfacet
  facet normal 0 0 1
    outer loop
      vertex 47.5044 21.1503 0
      vertex 43.8502 19.5234 0
      vertex 50.8637 10.8114 0
    endloop
  endfacet
  facet normal 0 0 1
    outer loop
      vertex 43.8502 19.5234 0
      vertex 46.9445 10 0
      vertex 50.8637 10.8114 0
    endloop
  endfacet
  facet normal 0 0 1
    outer loop
      vertex 45 0 0
      vertex 44.0166 -9.35603 0
      vertex 52 0 0
    endloop
  endfacet
  facet normal 0 0 1
    outer loop
      vertex 50.8637 10.8114 0
      vertex 45 0 0
      vertex 52 0 0
    endloop
  endfacet
  facet normal 0 0 1
    outer loop
      vertex 52 0 0
      vertex 44.0166 -9.35603 0
      vertex 50.8637 -10.8114 0
    endloop
  endfacet
  facet normal 0 0 1
    outer loop
      vertex 44.0166 -9.35603 0
      vertex 46.9445 -10 0
      vertex 50.8637 -10.8114 0
    endloop
  endfacet
  facet normal 0 0 1
    outer loop
      vertex 44.0166 -9.35603 0
      vertex 43.8074 -10 0
      vertex 46.9445 -10 0
    endloop
  endfacet
  facet normal 0 0 1
    outer loop
      vertex 50.8637 -10.8114 0
      vertex 43.8502 -19.5234 0
      vertex 47.5044 -21.1503 0
    endloop
  endfacet
  facet normal 0 0 1
    outer loop
      vertex -46.9445 -10 0
      vertex -44.0166 -9.35603 0
      vertex -50.8637 -10.8114 0
    endloop
  endfacet
  facet normal 0 0 1
    outer loop
      vertex 47.5044 -21.1503 0
      vertex 38.8328 -28.2137 0
      vertex 42.0689 -30.5648 0
    endloop
  endfacet
  facet normal 0 0 1
    outer loop
      vertex 14.8328 45.6507 0
      vertex 24 41.5692 0
      vertex 26 45.0333 0
    endloop
  endfacet
  facet normal 0 0 1
    outer loop
      vertex 42.0689 -30.5648 0
      vertex 32.1183 -35.671 0
      vertex 34.7948 -38.6435 0
    endloop
  endfacet
  facet normal 0 0 1
    outer loop
      vertex 34.7948 -38.6435 0
      vertex 24 -41.5692 0
      vertex 26 -45.0333 0
    endloop
  endfacet
  facet normal 0 0 1
    outer loop
      vertex 26 -45.0333 0
      vertex 14.8328 -45.6507 0
      vertex 16.0689 -49.4549 0
    endloop
  endfacet
  facet normal 0 0 1
    outer loop
      vertex 16.0689 -49.4549 0
      vertex 10 -46.678 0
      vertex 5.43548 -51.7151 0
    endloop
  endfacet
  facet normal 0 0 1
    outer loop
      vertex 43.8074 10 0
      vertex 44.0166 9.35603 0
      vertex 46.9445 10 0
    endloop
  endfacet
  facet normal 0 0 1
    outer loop
      vertex 10 -46.678 0
      vertex 4.70378 -44.7535 0
      vertex 5.43548 -51.7151 0
    endloop
  endfacet
  facet normal 0 0 1
    outer loop
      vertex 46.9445 10 0
      vertex 44.0166 9.35603 0
      vertex 50.8637 10.8114 0
    endloop
  endfacet
  facet normal 0 0 1
    outer loop
      vertex 5.43548 -51.7151 0
      vertex -4.70378 -44.7535 0
      vertex -5.43548 -51.7151 0
    endloop
  endfacet
  facet normal 0 0 1
    outer loop
      vertex -4.70378 -44.7535 0
      vertex -10 -43.6277 0
      vertex -5.43548 -51.7151 0
    endloop
  endfacet
  facet normal 0 0 1
    outer loop
      vertex -10 -43.6277 0
      vertex -10 -46.678 0
      vertex -5.43548 -51.7151 0
    endloop
  endfacet
  facet normal 0 0 1
    outer loop
      vertex -5.43548 -51.7151 0
      vertex -14.8328 -45.6507 0
      vertex -16.0689 -49.4549 0
    endloop
  endfacet
  facet normal 0 0 1
    outer loop
      vertex -16.0689 -49.4549 0
      vertex -24 -41.5692 0
      vertex -26 -45.0333 0
    endloop
  endfacet
  facet normal 0 0 1
    outer loop
      vertex -24 -41.5692 0
      vertex -32.1183 -35.671 0
      vertex -26 -45.0333 0
    endloop
  endfacet
  facet normal 0 0 1
    outer loop
      vertex -26 -45.0333 0
      vertex -38.8328 -28.2137 0
      vertex -34.7948 -38.6435 0
    endloop
  endfacet
  facet normal 0 0 1
    outer loop
      vertex 14.8328 -45.6507 0
      vertex 10 -46.678 0
      vertex 16.0689 -49.4549 0
    endloop
  endfacet
  facet normal 0 0 1
    outer loop
      vertex 43.8502 -19.5234 0
      vertex 38.8328 -28.2137 0
      vertex 47.5044 -21.1503 0
    endloop
  endfacet
  facet normal 0 0 1
    outer loop
      vertex 38.8328 -28.2137 0
      vertex 32.1183 -35.671 0
      vertex 42.0689 -30.5648 0
    endloop
  endfacet
  facet normal 0 0 1
    outer loop
      vertex 32.1183 -35.671 0
      vertex 24 -41.5692 0
      vertex 34.7948 -38.6435 0
    endloop
  endfacet
  facet normal 0 0 1
    outer loop
      vertex 24 -41.5692 0
      vertex 14.8328 -45.6507 0
      vertex 26 -45.0333 0
    endloop
  endfacet
  facet normal 0 0 1
    outer loop
      vertex 4.70378 -44.7535 0
      vertex -4.70378 -44.7535 0
      vertex 5.43548 -51.7151 0
    endloop
  endfacet
  facet normal 0 0 1
    outer loop
      vertex 10 -43.6277 0
      vertex 4.70378 -44.7535 0
      vertex 10 -46.678 0
    endloop
  endfacet
  facet normal 0 0 1
    outer loop
      vertex -10 -46.678 0
      vertex -14.8328 -45.6507 0
      vertex -5.43548 -51.7151 0
    endloop
  endfacet
  facet normal 0 0 1
    outer loop
      vertex -14.8328 -45.6507 0
      vertex -24 -41.5692 0
      vertex -16.0689 -49.4549 0
    endloop
  endfacet
  facet normal 0 0 1
    outer loop
      vertex -32.1183 -35.671 0
      vertex -38.8328 -28.2137 0
      vertex -26 -45.0333 0
    endloop
  endfacet
  facet normal 0 0 1
    outer loop
      vertex -43.8502 -19.5234 0
      vertex -46.9445 -10 0
      vertex -50.8637 -10.8114 0
    endloop
  endfacet
  facet normal 0 -1 0
    outer loop
      vertex -42.7617 10 10
      vertex -43.8074 10 9
      vertex -42.7617 10 9
    endloop
  endfacet
  facet normal 0 -1 0
    outer loop
      vertex -46.9445 10 10
      vertex -43.8074 10 9
      vertex -42.7617 10 10
    endloop
  endfacet
  facet normal 0 -1 0
    outer loop
      vertex -43.8074 10 0
      vertex -43.8074 10 9
      vertex -46.9445 10 10
    endloop
  endfacet
  facet normal 0 -1 0
    outer loop
      vertex -46.9445 10 0
      vertex -43.8074 10 0
      vertex -46.9445 10 10
    endloop
  endfacet
  facet normal 0 0 -1
    outer loop
      vertex -36.4058 26.4503 9
      vertex -30.1109 33.4415 9
      vertex -41.1095 18.3031 9
    endloop
  endfacet
  facet normal 0 0 -1
    outer loop
      vertex -29.4417 32.6984 9
      vertex -30.1109 33.4415 9
      vertex -22.5 38.9711 9
    endloop
  endfacet
  facet normal 0 0 -1
    outer loop
      vertex -22 38.1051 9
      vertex -22.5 38.9711 9
      vertex -13.9058 42.7975 9
    endloop
  endfacet
  facet normal 0 0 -1
    outer loop
      vertex -13.5967 41.8465 9
      vertex -13.9058 42.7975 9
      vertex -10 43.6277 9
    endloop
  endfacet
  facet normal 0 0 -1
    outer loop
      vertex -22 38.1051 9
      vertex -13.9058 42.7975 9
      vertex -13.5967 41.8465 9
    endloop
  endfacet
  facet normal 0 0 -1
    outer loop
      vertex -29.4417 32.6984 9
      vertex -22.5 38.9711 9
      vertex -22 38.1051 9
    endloop
  endfacet
  facet normal 0 0 -1
    outer loop
      vertex -35.5967 25.8626 9
      vertex -30.1109 33.4415 9
      vertex -29.4417 32.6984 9
    endloop
  endfacet
  facet normal 0 0 -1
    outer loop
      vertex -40.196 17.8964 9
      vertex -41.1095 18.3031 9
      vertex -35.5967 25.8626 9
    endloop
  endfacet
  facet normal 0 0 -1
    outer loop
      vertex -41.1095 18.3031 9
      vertex -30.1109 33.4415 9
      vertex -35.5967 25.8626 9
    endloop
  endfacet
  facet normal 0 0 -1
    outer loop
      vertex -41.1095 18.3031 9
      vertex -40.196 17.8964 9
      vertex -42.7617 10 9
    endloop
  endfacet
  facet normal 0 0 -1
    outer loop
      vertex -41.1095 18.3031 9
      vertex -42.7617 10 9
      vertex -43.8074 10 9
    endloop
  endfacet
  facet normal 0 0 -1
    outer loop
      vertex -13.5967 41.8465 9
      vertex -10 43.6277 9
      vertex -10 42.611 9
    endloop
  endfacet
  facet normal 1 0 0
    outer loop
      vertex -10 43.6277 9
      vertex -10 43.6277 0
      vertex -10 46.678 0
    endloop
  endfacet
  facet normal 1 0 0
    outer loop
      vertex -10 42.611 10
      vertex -10 43.6277 9
      vertex -10 46.678 10
    endloop
  endfacet
  facet normal 1 0 0
    outer loop
      vertex -10 46.678 10
      vertex -10 43.6277 9
      vertex -10 46.678 0
    endloop
  endfacet
  facet normal 1 0 0
    outer loop
      vertex -10 42.611 9
      vertex -10 43.6277 9
      vertex -10 42.611 10
    endloop
  endfacet
  facet normal -1 0 0
    outer loop
      vertex 10 42.611 9
      vertex 10 42.611 10
      vertex 10 43.6277 9
    endloop
  endfacet
  facet normal -1 0 0
    outer loop
      vertex 10 46.678 10
      vertex 10 46.678 0
      vertex 10 43.6277 9
    endloop
  endfacet
  facet normal -1 0 0
    outer loop
      vertex 10 46.678 10
      vertex 10 43.6277 9
      vertex 10 42.611 10
    endloop
  endfacet
  facet normal -1 0 0
    outer loop
      vertex 10 43.6277 9
      vertex 10 46.678 0
      vertex 10 43.6277 0
    endloop
  endfacet
  facet normal 0 0 -1
    outer loop
      vertex 13.9058 42.7975 9
      vertex 22.5 38.9711 9
      vertex 10 43.6277 9
    endloop
  endfacet
  facet normal 0 0 -1
    outer loop
      vertex 22 38.1051 9
      vertex 22.5 38.9711 9
      vertex 30.1109 33.4415 9
    endloop
  endfacet
  facet normal 0 0 -1
    outer loop
      vertex 29.4417 32.6984 9
      vertex 30.1109 33.4415 9
      vertex 36.4058 26.4503 9
    endloop
  endfacet
  facet normal 0 0 -1
    outer loop
      vertex 35.5967 25.8626 9
      vertex 36.4058 26.4503 9
      vertex 41.1095 18.3031 9
    endloop
  endfacet
  facet normal 0 0 -1
    outer loop
      vertex 40.196 17.8964 9
      vertex 41.1095 18.3031 9
      vertex 43.8074 10 9
    endloop
  endfacet
  facet normal 0 0 -1
    outer loop
      vertex 35.5967 25.8626 9
      vertex 41.1095 18.3031 9
      vertex 40.196 17.8964 9
    endloop
  endfacet
  facet normal 0 0 -1
    outer loop
      vertex 29.4417 32.6984 9
      vertex 36.4058 26.4503 9
      vertex 35.5967 25.8626 9
    endloop
  endfacet
  facet normal 0 0 -1
    outer loop
      vertex 22 38.1051 9
      vertex 30.1109 33.4415 9
      vertex 29.4417 32.6984 9
    endloop
  endfacet
  facet normal 0 0 -1
    outer loop
      vertex 10 43.6277 9
      vertex 22.5 38.9711 9
      vertex 22 38.1051 9
    endloop
  endfacet
  facet normal 0 0 -1
    outer loop
      vertex 10 42.611 9
      vertex 10 43.6277 9
      vertex 13.5967 41.8465 9
    endloop
  endfacet
  facet normal 0 0 -1
    outer loop
      vertex 10 43.6277 9
      vertex 22 38.1051 9
      vertex 13.5967 41.8465 9
    endloop
  endfacet
  facet normal 0 0 -1
    outer loop
      vertex 40.196 17.8964 9
      vertex 43.8074 10 9
      vertex 42.7617 10 9
    endloop
  endfacet
  facet normal 0 -1 0
    outer loop
      vertex 43.8074 10 9
      vertex 43.8074 10 0
      vertex 46.9445 10 0
    endloop
  endfacet
  facet normal 0 -1 0
    outer loop
      vertex 42.7617 10 10
      vertex 43.8074 10 9
      vertex 46.9445 10 10
    endloop
  endfacet
  facet normal 0 -1 0
    outer loop
      vertex 46.9445 10 10
      vertex 43.8074 10 9
      vertex 46.9445 10 0
    endloop
  endfacet
  facet normal 0 -1 0
    outer loop
      vertex 42.7617 10 9
      vertex 43.8074 10 9
      vertex 42.7617 10 10
    endloop
  endfacet
  facet normal 0 0 -1
    outer loop
      vertex 22.5 -38.9711 9
      vertex 22 -38.1051 9
      vertex 30.1109 -33.4415 9
    endloop
  endfacet
  facet normal 0 0 -1
    outer loop
      vertex 30.1109 -33.4415 9
      vertex 29.4417 -32.6984 9
      vertex 36.4058 -26.4503 9
    endloop
  endfacet
  facet normal 0 0 -1
    outer loop
      vertex 36.4058 -26.4503 9
      vertex 35.5967 -25.8626 9
      vertex 41.1095 -18.3031 9
    endloop
  endfacet
  facet normal 0 0 -1
    outer loop
      vertex 43.8074 -10 9
      vertex 40.196 -17.8964 9
      vertex 42.7617 -10 9
    endloop
  endfacet
  facet normal 0 0 -1
    outer loop
      vertex 41.1095 -18.3031 9
      vertex 40.196 -17.8964 9
      vertex 43.8074 -10 9
    endloop
  endfacet
  facet normal 0 0 -1
    outer loop
      vertex 35.5967 -25.8626 9
      vertex 40.196 -17.8964 9
      vertex 41.1095 -18.3031 9
    endloop
  endfacet
  facet normal 0 0 -1
    outer loop
      vertex 29.4417 -32.6984 9
      vertex 35.5967 -25.8626 9
      vertex 36.4058 -26.4503 9
    endloop
  endfacet
  facet normal 0 0 -1
    outer loop
      vertex 22 -38.1051 9
      vertex 29.4417 -32.6984 9
      vertex 30.1109 -33.4415 9
    endloop
  endfacet
  facet normal 0 0 -1
    outer loop
      vertex 13.5967 -41.8465 9
      vertex 22 -38.1051 9
      vertex 22.5 -38.9711 9
    endloop
  endfacet
  facet normal 0 0 -1
    outer loop
      vertex 13.5967 -41.8465 9
      vertex 22.5 -38.9711 9
      vertex 13.9058 -42.7975 9
    endloop
  endfacet
  facet normal 0 0 -1
    outer loop
      vertex 13.5967 -41.8465 9
      vertex 13.9058 -42.7975 9
      vertex 10 -42.611 9
    endloop
  endfacet
  facet normal 0 0 -1
    outer loop
      vertex 13.9058 -42.7975 9
      vertex 10 -43.6277 9
      vertex 10 -42.611 9
    endloop
  endfacet
  facet normal 0 1 0
    outer loop
      vertex 42.7617 -10 9
      vertex 42.7617 -10 10
      vertex 43.8074 -10 9
    endloop
  endfacet
  facet normal 0 1 0
    outer loop
      vertex 46.9445 -10 10
      vertex 46.9445 -10 0
      vertex 43.8074 -10 9
    endloop
  endfacet
  facet normal 0 1 0
    outer loop
      vertex 46.9445 -10 10
      vertex 43.8074 -10 9
      vertex 42.7617 -10 10
    endloop
  endfacet
  facet normal 0 1 0
    outer loop
      vertex 43.8074 -10 9
      vertex 46.9445 -10 0
      vertex 43.8074 -10 0
    endloop
  endfacet
  facet normal -1 0 0
    outer loop
      vertex 10 -42.611 10
      vertex 10 -42.611 9
      vertex 10 -46.678 10
    endloop
  endfacet
  facet normal -1 0 0
    outer loop
      vertex 10 -46.678 10
      vertex 10 -42.611 9
      vertex 10 -43.6277 9
    endloop
  endfacet
  facet normal -1 0 0
    outer loop
      vertex 10 -46.678 10
      vertex 10 -43.6277 9
      vertex 10 -43.6277 0
    endloop
  endfacet
  facet normal -1 0 0
    outer loop
      vertex 10 -46.678 10
      vertex 10 -43.6277 0
      vertex 10 -46.678 0
    endloop
  endfacet
  facet normal 0 0 -1
    outer loop
      vertex -36.4058 -26.4503 9
      vertex -35.5967 -25.8626 9
      vertex -30.1109 -33.4415 9
    endloop
  endfacet
  facet normal 0 0 -1
    outer loop
      vertex -30.1109 -33.4415 9
      vertex -29.4417 -32.6984 9
      vertex -22.5 -38.9711 9
    endloop
  endfacet
  facet normal 0 0 -1
    outer loop
      vertex -13.9058 -42.7975 9
      vertex -22 -38.1051 9
      vertex -10 -43.6277 9
    endloop
  endfacet
  facet normal 0 0 -1
    outer loop
      vertex -10 -43.6277 9
      vertex -13.5967 -41.8465 9
      vertex -10 -42.611 9
    endloop
  endfacet
  facet normal 0 0 -1
    outer loop
      vertex -22 -38.1051 9
      vertex -13.5967 -41.8465 9
      vertex -10 -43.6277 9
    endloop
  endfacet
  facet normal 0 0 -1
    outer loop
      vertex -22.5 -38.9711 9
      vertex -22 -38.1051 9
      vertex -13.9058 -42.7975 9
    endloop
  endfacet
  facet normal 0 0 -1
    outer loop
      vertex -29.4417 -32.6984 9
      vertex -22 -38.1051 9
      vertex -22.5 -38.9711 9
    endloop
  endfacet
  facet normal 0 0 -1
    outer loop
      vertex -35.5967 -25.8626 9
      vertex -29.4417 -32.6984 9
      vertex -30.1109 -33.4415 9
    endloop
  endfacet
  facet normal 0 0 -1
    outer loop
      vertex -40.196 -17.8964 9
      vertex -35.5967 -25.8626 9
      vertex -36.4058 -26.4503 9
    endloop
  endfacet
  facet normal 0 0 -1
    outer loop
      vertex -40.196 -17.8964 9
      vertex -36.4058 -26.4503 9
      vertex -41.1095 -18.3031 9
    endloop
  endfacet
  facet normal 0 0 -1
    outer loop
      vertex -40.196 -17.8964 9
      vertex -41.1095 -18.3031 9
      vertex -42.7617 -10 9
    endloop
  endfacet
  facet normal 0 0 -1
    outer loop
      vertex -41.1095 -18.3031 9
      vertex -43.8074 -10 9
      vertex -42.7617 -10 9
    endloop
  endfacet
  facet normal 1 0 0
    outer loop
      vertex -10 -42.611 10
      vertex -10 -43.6277 9
      vertex -10 -42.611 9
    endloop
  endfacet
  facet normal 1 0 0
    outer loop
      vertex -10 -46.678 10
      vertex -10 -43.6277 9
      vertex -10 -42.611 10
    endloop
  endfacet
  facet normal 1 0 0
    outer loop
      vertex -10 -43.6277 0
      vertex -10 -43.6277 9
      vertex -10 -46.678 10
    endloop
  endfacet
  facet normal 1 0 0
    outer loop
      vertex -10 -46.678 0
      vertex -10 -43.6277 0
      vertex -10 -46.678 10
    endloop
  endfacet
  facet normal 0 1 0
    outer loop
      vertex -42.7617 -10 10
      vertex -42.7617 -10 9
      vertex -46.9445 -10 10
    endloop
  endfacet
  facet normal 0 1 0
    outer loop
      vertex -46.9445 -10 10
      vertex -42.7617 -10 9
      vertex -43.8074 -10 9
    endloop
  endfacet
  facet normal 0 1 0
    outer loop
      vertex -46.9445 -10 10
      vertex -43.8074 -10 9
      vertex -43.8074 -10 0
    endloop
  endfacet
  facet normal 0 1 0
    outer loop
      vertex -46.9445 -10 10
      vertex -43.8074 -10 0
      vertex -46.9445 -10 0
    endloop
  endfacet
  facet normal -0.951057 -0.309017 0
    outer loop
      vertex -46.9445 -10 0
      vertex -43.8502 -19.5234 0
      vertex -46.9445 -10 10
    endloop
  endfacet
  facet normal -0.951057 -0.309017 0
    outer loop
      vertex -46.9445 -10 10
      vertex -43.8502 -19.5234 0
      vertex -43.8502 -19.5234 10
    endloop
  endfacet
  facet normal -0.866025 -0.5 0
    outer loop
      vertex -43.8502 -19.5234 0
      vertex -38.8328 -28.2137 0
      vertex -43.8502 -19.5234 10
    endloop
  endfacet
  facet normal -0.866025 -0.5 0
    outer loop
      vertex -43.8502 -19.5234 10
      vertex -38.8328 -28.2137 0
      vertex -38.8328 -28.2137 10
    endloop
  endfacet
  facet normal -0.743145 -0.669131 0
    outer loop
      vertex -38.8328 -28.2137 0
      vertex -32.1183 -35.671 0
      vertex -38.8328 -28.2137 10
    endloop
  endfacet
  facet normal -0.743145 -0.669131 0
    outer loop
      vertex -38.8328 -28.2137 10
      vertex -32.1183 -35.671 0
      vertex -32.1183 -35.671 10
    endloop
  endfacet
  facet normal -0.587785 -0.809017 0
    outer loop
      vertex -32.1183 -35.671 10
      vertex -32.1183 -35.671 0
      vertex -24 -41.5692 0
    endloop
  endfacet
  facet normal -0.587785 -0.809017 0
    outer loop
      vertex -24 -41.5692 10
      vertex -32.1183 -35.671 10
      vertex -24 -41.5692 0
    endloop
  endfacet
  facet normal -0.406737 -0.913545 0
    outer loop
      vertex -24 -41.5692 10
      vertex -24 -41.5692 0
      vertex -14.8328 -45.6507 0
    endloop
  endfacet
  facet normal -0.406737 -0.913545 0
    outer loop
      vertex -14.8328 -45.6507 10
      vertex -24 -41.5692 10
      vertex -14.8328 -45.6507 0
    endloop
  endfacet
  facet normal -0.207912 -0.978148 0
    outer loop
      vertex -14.8328 -45.6507 10
      vertex -14.8328 -45.6507 0
      vertex -10 -46.678 0
    endloop
  endfacet
  facet normal -0.207912 -0.978148 0
    outer loop
      vertex -10 -46.678 10
      vertex -14.8328 -45.6507 10
      vertex -10 -46.678 0
    endloop
  endfacet
  facet normal 0.207912 -0.978148 0
    outer loop
      vertex 10 -46.678 10
      vertex 10 -46.678 0
      vertex 14.8328 -45.6507 0
    endloop
  endfacet
  facet normal 0.207912 -0.978148 0
    outer loop
      vertex 14.8328 -45.6507 10
      vertex 10 -46.678 10
      vertex 14.8328 -45.6507 0
    endloop
  endfacet
  facet normal 0.406737 -0.913545 0
    outer loop
      vertex 14.8328 -45.6507 10
      vertex 14.8328 -45.6507 0
      vertex 24 -41.5692 0
    endloop
  endfacet
  facet normal 0.406737 -0.913545 0
    outer loop
      vertex 24 -41.5692 10
      vertex 14.8328 -45.6507 10
      vertex 24 -41.5692 0
    endloop
  endfacet
  facet normal 0.587785 -0.809017 0
    outer loop
      vertex 24 -41.5692 10
      vertex 24 -41.5692 0
      vertex 32.1183 -35.671 0
    endloop
  endfacet
  facet normal 0.587785 -0.809017 0
    outer loop
      vertex 32.1183 -35.671 10
      vertex 24 -41.5692 10
      vertex 32.1183 -35.671 0
    endloop
  endfacet
  facet normal 0.743145 -0.669131 0
    outer loop
      vertex 32.1183 -35.671 10
      vertex 32.1183 -35.671 0
      vertex 38.8328 -28.2137 0
    endloop
  endfacet
  facet normal 0.743145 -0.669131 0
    outer loop
      vertex 38.8328 -28.2137 10
      vertex 32.1183 -35.671 10
      vertex 38.8328 -28.2137 0
    endloop
  endfacet
  facet normal 0.866025 -0.5 0
    outer loop
      vertex 38.8328 -28.2137 10
      vertex 38.8328 -28.2137 0
      vertex 43.8502 -19.5234 0
    endloop
  endfacet
  facet normal 0.866025 -0.5 0
    outer loop
      vertex 43.8502 -19.5234 10
      vertex 38.8328 -28.2137 10
      vertex 43.8502 -19.5234 0
    endloop
  endfacet
  facet normal 0.951057 -0.309017 0
    outer loop
      vertex 43.8502 -19.5234 10
      vertex 43.8502 -19.5234 0
      vertex 46.9445 -10 0
    endloop
  endfacet
  facet normal 0.951057 -0.309017 0
    outer loop
      vertex 46.9445 -10 10
      vertex 43.8502 -19.5234 10
      vertex 46.9445 -10 0
    endloop
  endfacet
  facet normal 0.951057 0.309017 0
    outer loop
      vertex 46.9445 10 0
      vertex 43.8502 19.5234 0
      vertex 43.8502 19.5234 10
    endloop
  endfacet
  facet normal 0.951057 0.309017 0
    outer loop
      vertex 46.9445 10 10
      vertex 46.9445 10 0
      vertex 43.8502 19.5234 10
    endloop
  endfacet
  facet normal 0.866025 0.5 0
    outer loop
      vertex 43.8502 19.5234 0
      vertex 38.8328 28.2137 0
      vertex 38.8328 28.2137 10
    endloop
  endfacet
  facet normal 0.866025 0.5 0
    outer loop
      vertex 43.8502 19.5234 10
      vertex 43.8502 19.5234 0
      vertex 38.8328 28.2137 10
    endloop
  endfacet
  facet normal 0.743145 0.669131 0
    outer loop
      vertex 38.8328 28.2137 0
      vertex 32.1183 35.671 0
      vertex 32.1183 35.671 10
    endloop
  endfacet
  facet normal 0.743145 0.669131 0
    outer loop
      vertex 38.8328 28.2137 10
      vertex 38.8328 28.2137 0
      vertex 32.1183 35.671 10
    endloop
  endfacet
  facet normal 0.587785 0.809017 0
    outer loop
      vertex 24 41.5692 0
      vertex 24 41.5692 10
      vertex 32.1183 35.671 0
    endloop
  endfacet
  facet normal 0.587785 0.809017 0
    outer loop
      vertex 32.1183 35.671 0
      vertex 24 41.5692 10
      vertex 32.1183 35.671 10
    endloop
  endfacet
  facet normal 0.406737 0.913545 0
    outer loop
      vertex 14.8328 45.6507 0
      vertex 14.8328 45.6507 10
      vertex 24 41.5692 0
    endloop
  endfacet
  facet normal 0.406737 0.913545 0
    outer loop
      vertex 24 41.5692 0
      vertex 14.8328 45.6507 10
      vertex 24 41.5692 10
    endloop
  endfacet
  facet normal 0.207912 0.978148 0
    outer loop
      vertex 10 46.678 0
      vertex 10 46.678 10
      vertex 14.8328 45.6507 0
    endloop
  endfacet
  facet normal 0.207912 0.978148 0
    outer loop
      vertex 14.8328 45.6507 0
      vertex 10 46.678 10
      vertex 14.8328 45.6507 10
    endloop
  endfacet
  facet normal -0.207912 0.978148 0
    outer loop
      vertex -14.8328 45.6507 0
      vertex -14.8328 45.6507 10
      vertex -10 46.678 0
    endloop
  endfacet
  facet normal -0.207912 0.978148 0
    outer loop
      vertex -10 46.678 0
      vertex -14.8328 45.6507 10
      vertex -10 46.678 10
    endloop
  endfacet
  facet normal -0.406737 0.913545 0
    outer loop
      vertex -24 41.5692 0
      vertex -24 41.5692 10
      vertex -14.8328 45.6507 0
    endloop
  endfacet
  facet normal -0.406737 0.913545 0
    outer loop
      vertex -14.8328 45.6507 0
      vertex -24 41.5692 10
      vertex -14.8328 45.6507 10
    endloop
  endfacet
  facet normal -0.587785 0.809017 0
    outer loop
      vertex -32.1183 35.671 0
      vertex -32.1183 35.671 10
      vertex -24 41.5692 0
    endloop
  endfacet
  facet normal -0.587785 0.809017 0
    outer loop
      vertex -24 41.5692 0
      vertex -32.1183 35.671 10
      vertex -24 41.5692 10
    endloop
  endfacet
  facet normal -0.743145 0.669131 0
    outer loop
      vertex -38.8328 28.2137 0
      vertex -38.8328 28.2137 10
      vertex -32.1183 35.671 0
    endloop
  endfacet
  facet normal -0.743145 0.669131 0
    outer loop
      vertex -32.1183 35.671 0
      vertex -38.8328 28.2137 10
      vertex -32.1183 35.671 10
    endloop
  endfacet
  facet normal -0.866025 0.5 0
    outer loop
      vertex -43.8502 19.5234 0
      vertex -43.8502 19.5234 10
      vertex -38.8328 28.2137 0
    endloop
  endfacet
  facet normal -0.866025 0.5 0
    outer loop
      vertex -38.8328 28.2137 0
      vertex -43.8502 19.5234 10
      vertex -38.8328 28.2137 10
    endloop
  endfacet
  facet normal -0.951057 0.309017 0
    outer loop
      vertex -46.9445 10 0
      vertex -46.9445 10 10
      vertex -43.8502 19.5234 0
    endloop
  endfacet
  facet normal -0.951057 0.309017 0
    outer loop
      vertex -43.8502 19.5234 0
      vertex -46.9445 10 10
      vertex -43.8502 19.5234 10
    endloop
  endfacet
  facet normal 0 0 1
    outer loop
      vertex -43.8502 19.5234 10
      vertex -46.9445 10 10
      vertex -42.7617 10 10
    endloop
  endfacet
  facet normal 0 0 1
    outer loop
      vertex -35.5967 25.8626 10
      vertex -43.8502 19.5234 10
      vertex -40.196 17.8964 10
    endloop
  endfacet
  facet normal 0 0 1
    outer loop
      vertex -40.196 17.8964 10
      vertex -43.8502 19.5234 10
      vertex -42.7617 10 10
    endloop
  endfacet
  facet normal 0 0 1
    outer loop
      vertex -29.4417 32.6984 10
      vertex -43.8502 19.5234 10
      vertex -35.5967 25.8626 10
    endloop
  endfacet
  facet normal 0 0 1
    outer loop
      vertex -24 41.5692 10
      vertex -43.8502 19.5234 10
      vertex -29.4417 32.6984 10
    endloop
  endfacet
  facet normal 0 0 1
    outer loop
      vertex -14.8328 45.6507 10
      vertex -29.4417 32.6984 10
      vertex -22 38.1051 10
    endloop
  endfacet
  facet normal 0 0 1
    outer loop
      vertex -10 46.678 10
      vertex -22 38.1051 10
      vertex -13.5967 41.8465 10
    endloop
  endfacet
  facet normal 0 0 1
    outer loop
      vertex -10 46.678 10
      vertex -13.5967 41.8465 10
      vertex -10 42.611 10
    endloop
  endfacet
  facet normal 0 0 1
    outer loop
      vertex -14.8328 45.6507 10
      vertex -22 38.1051 10
      vertex -10 46.678 10
    endloop
  endfacet
  facet normal 0 0 1
    outer loop
      vertex -24 41.5692 10
      vertex -29.4417 32.6984 10
      vertex -14.8328 45.6507 10
    endloop
  endfacet
  facet normal 0 0 1
    outer loop
      vertex -32.1183 35.671 10
      vertex -43.8502 19.5234 10
      vertex -24 41.5692 10
    endloop
  endfacet
  facet normal 0 0 1
    outer loop
      vertex -38.8328 28.2137 10
      vertex -43.8502 19.5234 10
      vertex -32.1183 35.671 10
    endloop
  endfacet
  facet normal 0.951057 -0.309017 0
    outer loop
      vertex -40.196 17.8964 9
      vertex -40.196 17.8964 10
      vertex -42.7617 10 10
    endloop
  endfacet
  facet normal 0.951057 -0.309017 0
    outer loop
      vertex -42.7617 10 9
      vertex -40.196 17.8964 9
      vertex -42.7617 10 10
    endloop
  endfacet
  facet normal 0.866025 -0.5 0
    outer loop
      vertex -35.5967 25.8626 9
      vertex -35.5967 25.8626 10
      vertex -40.196 17.8964 10
    endloop
  endfacet
  facet normal 0.866025 -0.5 0
    outer loop
      vertex -40.196 17.8964 9
      vertex -35.5967 25.8626 9
      vertex -40.196 17.8964 10
    endloop
  endfacet
  facet normal 0.743145 -0.669131 0
    outer loop
      vertex -29.4417 32.6984 9
      vertex -29.4417 32.6984 10
      vertex -35.5967 25.8626 10
    endloop
  endfacet
  facet normal 0.743145 -0.669131 0
    outer loop
      vertex -35.5967 25.8626 9
      vertex -29.4417 32.6984 9
      vertex -35.5967 25.8626 10
    endloop
  endfacet
  facet normal 0.587785 -0.809017 0
    outer loop
      vertex -22 38.1051 9
      vertex -22 38.1051 10
      vertex -29.4417 32.6984 10
    endloop
  endfacet
  facet normal 0.587785 -0.809017 0
    outer loop
      vertex -29.4417 32.6984 9
      vertex -22 38.1051 9
      vertex -29.4417 32.6984 10
    endloop
  endfacet
  facet normal 0.406737 -0.913545 0
    outer loop
      vertex -13.5967 41.8465 9
      vertex -13.5967 41.8465 10
      vertex -22 38.1051 10
    endloop
  endfacet
  facet normal 0.406737 -0.913545 0
    outer loop
      vertex -22 38.1051 9
      vertex -13.5967 41.8465 9
      vertex -22 38.1051 10
    endloop
  endfacet
  facet normal 0.207912 -0.978148 0
    outer loop
      vertex -10 42.611 9
      vertex -10 42.611 10
      vertex -13.5967 41.8465 10
    endloop
  endfacet
  facet normal 0.207912 -0.978148 0
    outer loop
      vertex -13.5967 41.8465 9
      vertex -10 42.611 9
      vertex -13.5967 41.8465 10
    endloop
  endfacet
  facet normal 0 0 1
    outer loop
      vertex 22 38.1051 10
      vertex 38.8328 28.2137 10
      vertex 10 46.678 10
    endloop
  endfacet
  facet normal 0 0 1
    outer loop
      vertex 10 46.678 10
      vertex 10 42.611 10
      vertex 13.5967 41.8465 10
    endloop
  endfacet
  facet normal 0 0 1
    outer loop
      vertex 29.4417 32.6984 10
      vertex 38.8328 28.2137 10
      vertex 22 38.1051 10
    endloop
  endfacet
  facet normal 0 0 1
    outer loop
      vertex 22 38.1051 10
      vertex 10 46.678 10
      vertex 13.5967 41.8465 10
    endloop
  endfacet
  facet normal 0 0 1
    outer loop
      vertex 35.5967 25.8626 10
      vertex 43.8502 19.5234 10
      vertex 29.4417 32.6984 10
    endloop
  endfacet
  facet normal 0 0 1
    outer loop
      vertex 40.196 17.8964 10
      vertex 46.9445 10 10
      vertex 35.5967 25.8626 10
    endloop
  endfacet
  facet normal 0 0 1
    outer loop
      vertex 42.7617 10 10
      vertex 46.9445 10 10
      vertex 40.196 17.8964 10
    endloop
  endfacet
  facet normal 0 0 1
    outer loop
      vertex 46.9445 10 10
      vertex 43.8502 19.5234 10
      vertex 35.5967 25.8626 10
    endloop
  endfacet
  facet normal 0 0 1
    outer loop
      vertex 43.8502 19.5234 10
      vertex 38.8328 28.2137 10
      vertex 29.4417 32.6984 10
    endloop
  endfacet
  facet normal 0 0 1
    outer loop
      vertex 38.8328 28.2137 10
      vertex 32.1183 35.671 10
      vertex 10 46.678 10
    endloop
  endfacet
  facet normal 0 0 1
    outer loop
      vertex 32.1183 35.671 10
      vertex 24 41.5692 10
      vertex 10 46.678 10
    endloop
  endfacet
  facet normal 0 0 1
    outer loop
      vertex 24 41.5692 10
      vertex 14.8328 45.6507 10
      vertex 10 46.678 10
    endloop
  endfacet
  facet normal -0.207912 -0.978148 0
    outer loop
      vertex 13.5967 41.8465 9
      vertex 13.5967 41.8465 10
      vertex 10 42.611 10
    endloop
  endfacet
  facet normal -0.207912 -0.978148 0
    outer loop
      vertex 10 42.611 9
      vertex 13.5967 41.8465 9
      vertex 10 42.611 10
    endloop
  endfacet
  facet normal -0.406737 -0.913545 0
    outer loop
      vertex 22 38.1051 9
      vertex 22 38.1051 10
      vertex 13.5967 41.8465 10
    endloop
  endfacet
  facet normal -0.406737 -0.913545 0
    outer loop
      vertex 13.5967 41.8465 9
      vertex 22 38.1051 9
      vertex 13.5967 41.8465 10
    endloop
  endfacet
  facet normal -0.587785 -0.809017 0
    outer loop
      vertex 29.4417 32.6984 9
      vertex 29.4417 32.6984 10
      vertex 22 38.1051 10
    endloop
  endfacet
  facet normal -0.587785 -0.809017 0
    outer loop
      vertex 22 38.1051 9
      vertex 29.4417 32.6984 9
      vertex 22 38.1051 10
    endloop
  endfacet
  facet normal -0.743145 -0.669131 0
    outer loop
      vertex 35.5967 25.8626 10
      vertex 29.4417 32.6984 10
      vertex 35.5967 25.8626 9
    endloop
  endfacet
  facet normal -0.743145 -0.669131 0
    outer loop
      vertex 35.5967 25.8626 9
      vertex 29.4417 32.6984 10
      vertex 29.4417 32.6984 9
    endloop
  endfacet
  facet normal -0.866025 -0.5 0
    outer loop
      vertex 40.196 17.8964 10
      vertex 35.5967 25.8626 10
      vertex 40.196 17.8964 9
    endloop
  endfacet
  facet normal -0.866025 -0.5 0
    outer loop
      vertex 40.196 17.8964 9
      vertex 35.5967 25.8626 10
      vertex 35.5967 25.8626 9
    endloop
  endfacet
  facet normal -0.951057 -0.309017 0
    outer loop
      vertex 42.7617 10 10
      vertex 40.196 17.8964 10
      vertex 42.7617 10 9
    endloop
  endfacet
  facet normal -0.951057 -0.309017 0
    outer loop
      vertex 42.7617 10 9
      vertex 40.196 17.8964 10
      vertex 40.196 17.8964 9
    endloop
  endfacet
  facet normal -0.207912 0.978148 0
    outer loop
      vertex 13.5967 -41.8465 10
      vertex 13.5967 -41.8465 9
      vertex 10 -42.611 10
    endloop
  endfacet
  facet normal -0.207912 0.978148 0
    outer loop
      vertex 10 -42.611 10
      vertex 13.5967 -41.8465 9
      vertex 10 -42.611 9
    endloop
  endfacet
  facet normal -0.951057 0.309017 0
    outer loop
      vertex 42.7617 -10 10
      vertex 42.7617 -10 9
      vertex 40.196 -17.8964 10
    endloop
  endfacet
  facet normal -0.951057 0.309017 0
    outer loop
      vertex 40.196 -17.8964 10
      vertex 42.7617 -10 9
      vertex 40.196 -17.8964 9
    endloop
  endfacet
  facet normal -0.866025 0.5 0
    outer loop
      vertex 40.196 -17.8964 10
      vertex 40.196 -17.8964 9
      vertex 35.5967 -25.8626 10
    endloop
  endfacet
  facet normal -0.866025 0.5 0
    outer loop
      vertex 35.5967 -25.8626 10
      vertex 40.196 -17.8964 9
      vertex 35.5967 -25.8626 9
    endloop
  endfacet
  facet normal -0.743145 0.669131 0
    outer loop
      vertex 35.5967 -25.8626 10
      vertex 35.5967 -25.8626 9
      vertex 29.4417 -32.6984 10
    endloop
  endfacet
  facet normal -0.743145 0.669131 0
    outer loop
      vertex 29.4417 -32.6984 10
      vertex 35.5967 -25.8626 9
      vertex 29.4417 -32.6984 9
    endloop
  endfacet
  facet normal -0.587785 0.809017 0
    outer loop
      vertex 29.4417 -32.6984 10
      vertex 29.4417 -32.6984 9
      vertex 22 -38.1051 10
    endloop
  endfacet
  facet normal -0.587785 0.809017 0
    outer loop
      vertex 22 -38.1051 10
      vertex 29.4417 -32.6984 9
      vertex 22 -38.1051 9
    endloop
  endfacet
  facet normal -0.406737 0.913545 0
    outer loop
      vertex 22 -38.1051 10
      vertex 22 -38.1051 9
      vertex 13.5967 -41.8465 10
    endloop
  endfacet
  facet normal -0.406737 0.913545 0
    outer loop
      vertex 13.5967 -41.8465 10
      vertex 22 -38.1051 9
      vertex 13.5967 -41.8465 9
    endloop
  endfacet
  facet normal 0 0 1
    outer loop
      vertex 10 -42.611 10
      vertex 10 -46.678 10
      vertex 14.8328 -45.6507 10
    endloop
  endfacet
  facet normal 0 0 1
    outer loop
      vertex 13.5967 -41.8465 10
      vertex 10 -42.611 10
      vertex 24 -41.5692 10
    endloop
  endfacet
  facet normal 0 0 1
    outer loop
      vertex 24 -41.5692 10
      vertex 10 -42.611 10
      vertex 14.8328 -45.6507 10
    endloop
  endfacet
  facet normal 0 0 1
    outer loop
      vertex 22 -38.1051 10
      vertex 13.5967 -41.8465 10
      vertex 32.1183 -35.671 10
    endloop
  endfacet
  facet normal 0 0 1
    outer loop
      vertex 29.4417 -32.6984 10
      vertex 22 -38.1051 10
      vertex 38.8328 -28.2137 10
    endloop
  endfacet
  facet normal 0 0 1
    outer loop
      vertex 40.196 -17.8964 10
      vertex 35.5967 -25.8626 10
      vertex 43.8502 -19.5234 10
    endloop
  endfacet
  facet normal 0 0 1
    outer loop
      vertex 46.9445 -10 10
      vertex 40.196 -17.8964 10
      vertex 43.8502 -19.5234 10
    endloop
  endfacet
  facet normal 0 0 1
    outer loop
      vertex 43.8502 -19.5234 10
      vertex 35.5967 -25.8626 10
      vertex 38.8328 -28.2137 10
    endloop
  endfacet
  facet normal 0 0 1
    outer loop
      vertex 35.5967 -25.8626 10
      vertex 29.4417 -32.6984 10
      vertex 38.8328 -28.2137 10
    endloop
  endfacet
  facet normal 0 0 1
    outer loop
      vertex 38.8328 -28.2137 10
      vertex 22 -38.1051 10
      vertex 32.1183 -35.671 10
    endloop
  endfacet
  facet normal 0 0 1
    outer loop
      vertex 32.1183 -35.671 10
      vertex 13.5967 -41.8465 10
      vertex 24 -41.5692 10
    endloop
  endfacet
  facet normal 0 0 1
    outer loop
      vertex 42.7617 -10 10
      vertex 40.196 -17.8964 10
      vertex 46.9445 -10 10
    endloop
  endfacet
  facet normal 0.951057 0.309017 0
    outer loop
      vertex -42.7617 -10 10
      vertex -40.196 -17.8964 10
      vertex -40.196 -17.8964 9
    endloop
  endfacet
  facet normal 0.951057 0.309017 0
    outer loop
      vertex -42.7617 -10 9
      vertex -42.7617 -10 10
      vertex -40.196 -17.8964 9
    endloop
  endfacet
  facet normal 0.207912 0.978148 0
    outer loop
      vertex -10 -42.611 10
      vertex -10 -42.611 9
      vertex -13.5967 -41.8465 10
    endloop
  endfacet
  facet normal 0.207912 0.978148 0
    outer loop
      vertex -13.5967 -41.8465 10
      vertex -10 -42.611 9
      vertex -13.5967 -41.8465 9
    endloop
  endfacet
  facet normal 0.406737 0.913545 0
    outer loop
      vertex -13.5967 -41.8465 10
      vertex -13.5967 -41.8465 9
      vertex -22 -38.1051 10
    endloop
  endfacet
  facet normal 0.406737 0.913545 0
    outer loop
      vertex -22 -38.1051 10
      vertex -13.5967 -41.8465 9
      vertex -22 -38.1051 9
    endloop
  endfacet
  facet normal 0.587785 0.809017 0
    outer loop
      vertex -22 -38.1051 10
      vertex -22 -38.1051 9
      vertex -29.4417 -32.6984 10
    endloop
  endfacet
  facet normal 0.587785 0.809017 0
    outer loop
      vertex -29.4417 -32.6984 10
      vertex -22 -38.1051 9
      vertex -29.4417 -32.6984 9
    endloop
  endfacet
  facet normal 0.743145 0.669131 0
    outer loop
      vertex -35.5967 -25.8626 10
      vertex -29.4417 -32.6984 10
      vertex -29.4417 -32.6984 9
    endloop
  endfacet
  facet normal 0.743145 0.669131 0
    outer loop
      vertex -35.5967 -25.8626 9
      vertex -35.5967 -25.8626 10
      vertex -29.4417 -32.6984 9
    endloop
  endfacet
  facet normal 0.866025 0.5 0
    outer loop
      vertex -40.196 -17.8964 10
      vertex -35.5967 -25.8626 10
      vertex -35.5967 -25.8626 9
    endloop
  endfacet
  facet normal 0.866025 0.5 0
    outer loop
      vertex -40.196 -17.8964 9
      vertex -40.196 -17.8964 10
      vertex -35.5967 -25.8626 9
    endloop
  endfacet
  facet normal 0 0 1
    outer loop
      vertex -42.7617 -10 10
      vertex -46.9445 -10 10
      vertex -43.8502 -19.5234 10
    endloop
  endfacet
  facet normal 0 0 1
    outer loop
      vertex -40.196 -17.8964 10
      vertex -42.7617 -10 10
      vertex -38.8328 -28.2137 10
    endloop
  endfacet
  facet normal 0 0 1
    outer loop
      vertex -38.8328 -28.2137 10
      vertex -42.7617 -10 10
      vertex -43.8502 -19.5234 10
    endloop
  endfacet
  facet normal 0 0 1
    outer loop
      vertex -35.5967 -25.8626 10
      vertex -40.196 -17.8964 10
      vertex -32.1183 -35.671 10
    endloop
  endfacet
  facet normal 0 0 1
    outer loop
      vertex -22 -38.1051 10
      vertex -29.4417 -32.6984 10
      vertex -24 -41.5692 10
    endloop
  endfacet
  facet normal 0 0 1
    outer loop
      vertex -10 -42.611 10
      vertex -13.5967 -41.8465 10
      vertex -10 -46.678 10
    endloop
  endfacet
  facet normal 0 0 1
    outer loop
      vertex -14.8328 -45.6507 10
      vertex -22 -38.1051 10
      vertex -24 -41.5692 10
    endloop
  endfacet
  facet normal 0 0 1
    outer loop
      vertex -24 -41.5692 10
      vertex -29.4417 -32.6984 10
      vertex -32.1183 -35.671 10
    endloop
  endfacet
  facet normal 0 0 1
    outer loop
      vertex -29.4417 -32.6984 10
      vertex -35.5967 -25.8626 10
      vertex -32.1183 -35.671 10
    endloop
  endfacet
  facet normal 0 0 1
    outer loop
      vertex -32.1183 -35.671 10
      vertex -40.196 -17.8964 10
      vertex -38.8328 -28.2137 10
    endloop
  endfacet
  facet normal 0 0 1
    outer loop
      vertex -13.5967 -41.8465 10
      vertex -14.8328 -45.6507 10
      vertex -10 -46.678 10
    endloop
  endfacet
  facet normal 0 0 1
    outer loop
      vertex -13.5967 -41.8465 10
      vertex -22 -38.1051 10
      vertex -14.8328 -45.6507 10
    endloop
  endfacet
endsolid OpenSCAD_Model
